<?xml version="1.0" encoding="utf-8"?>
<!-- Generator: Adobe Illustrator 16.2.1, SVG Export Plug-In . SVG Version: 6.00 Build 0)  -->
<!DOCTYPE svg PUBLIC "-//W3C//DTD SVG 1.1//EN" "http://www.w3.org/Graphics/SVG/1.1/DTD/svg11.dtd">
<svg version="1.1" id="Layer_1" xmlns="http://www.w3.org/2000/svg" xmlns:xlink="http://www.w3.org/1999/xlink" x="0px" y="0px"
	 width="275px" height="321px" viewBox="0 0 275 321" enable-background="new 0 0 275 321" xml:space="preserve">
<g>
	<path fill="#EF8729" d="M221.9,172.3c0,11-9,20-20,20H57.8c-11,0-20-8.9-20-20s9-20,20-20h144.1C213,152.3,221.9,161.3,221.9,172.3
		z"/>
	<polyline fill="#EEBA37" points="79,39.9 130.7,39.9 152.7,39.9 163.9,0.5 77.8,0.5 	"/>
	<rect x="70.5" y="20.7" fill="#EF8729" width="35.2" height="20.2"/>
	<path fill="#E42A25" d="M134.9,161.7c-10.5,0-19-8.5-19-19c0-10.5-10.1-19,0.4-19c40.3,0-82.9-0.3-49-56.4
		C97.3,17.4,128.9,0,165.7,0h53.7c10.5,0-15,4.8-15,15.3c0,10.5-8.5,19-19,19h-19.8c-15.1,0-36.3,6.1-66.4,53.3
		C68.7,135.6,195.5,161.7,134.9,161.7z"/>
	<path fill="#91181C" d="M134.9,161.7c60.7,0-66.2-26-35.6-74C129.5,40.4,150.7,38,165.7,38h19.8c10.5,0,19-8.5,19-19h-18.4h-0.3
		c-0.9,0-4.9,0-19.5,0c-23.5,0-49.9,7.4-82.5,58.5c-30.2,47.3,100.9,65.2,51.6,65.2h-19.6C115.9,153.1,124.4,161.7,134.9,161.7z"/>
	<path fill="#EF8729" d="M221.9,171.6c0-11-9-20-20-20H57.8c-11,0-20,8.9-20,20"/>
	<path fill="#91181C" d="M85.4,85c0,10.8,8.8,19.6,19.6,19.6h133.3c10.8,0,19.6-8.8,19.6-19.6s-8.8-19.6-19.6-19.6H105
		C94.2,65.4,85.4,74.2,85.4,85z"/>
	<path fill="#0989B0" d="M36.9,161.7c-10.5,0-19-8.5-19-19c0-10.5,8.5-19,19-19c40.3,0,59.1-12.1,87.3-56.4
		C155.6,18.2,185.9,0,222.8,0h19.8c10.5,0,19,8.5,19,19c0,10.5-8.5,19-19,19h-19.8c-15.1,0-36.3,2.4-66.4,49.7
		C125.7,135.6,97.6,161.7,36.9,161.7z"/>
	<path fill="#26346C" d="M37.8,158.5c60.7,0,87.9-22.9,118.5-70.8C186.5,40.4,207.7,38,222.8,38h19.8c10.5,0,19-8.5,19-19h-18.4
		h-0.3c-0.9,0-4.9,0-19.5,0c-23.5,0-49.9,7.4-82.5,58.5c-30.2,47.3-54,65.2-103.4,65.2H17.9C17.9,153.1,27.3,158.5,37.8,158.5z"/>
	<path fill="#26346C" d="M130.9,142.2c0,10.5,0,19-9.6,20.7h-94c-13.6,0-20-10.2-20-20.7s8.5-19,19.1-19h85.5
		C122.4,123.2,130.9,131.7,130.9,142.2z"/>
	<path fill="#0989B0" d="M130.9,142.2c0-10.5-8.6-19.3-19.1-19.3l-85.4,0.3c-10.5,0-19.1,8.5-19.1,19"/>
	<path fill="#91181C" d="M179,211.4c0,10.7-8.7,19.4-19.4,19.4H19.4C8.7,230.8,0,222.1,0,211.4S8.7,192,19.4,192h140.1
		C170.3,192,179,200.6,179,211.4z"/>
	<path fill="#E42A25" d="M179,211.4c0-10.7-8.7-19.4-19.4-19.4H19.4C8.7,192,0,200.6,0,211.4"/>
	<path fill="#E42A25" d="M38.4,321L21,320.6L7.8,300.4h20.1c26.6,0,41.4-62.5,41.4-62.5c3.5-11.9,13.9-45.5,52.6-45.5h91l-33.4,38.5
		h-57.6c-5.3,0-9.9,0.7-15.1,18.5l-0.4,1.1l-11.1,31l-0.2,0.5C84.4,307.9,65.3,321,38.4,321z"/>
	<rect x="223.9" y="38" fill-rule="evenodd" clip-rule="evenodd" fill="#55474D" width="8.5" height="263.8"/>
	<rect x="155.9" y="106.3" fill-rule="evenodd" clip-rule="evenodd" fill="#55474D" width="8.5" height="195.5"/>
	<path fill="#91181C" d="M95.3,282l0.2-0.5l11.1-31l0.4-1.1c3.3-10.5,10.3-18.5,23.6-18.5h48.9v-19.3c0,0-14.8,0-41.3,0
		c-13.1,0-28.8,0-37.1,8.9c-8.8,9.5-15.7,32.1-15.7,32.1c-6.7,19.5-11.8,47.9-41.1,47.9H20.9L22,321h16.6
		C65.4,321,84.5,307.9,95.3,282z"/>
	<path fill="#E42A25" d="M22.2,321c11.4,0,20.7-9.2,20.7-20.6H1.6C1.6,314.2,10.8,321,22.2,321z"/>
	<path fill="#0989B0" d="M95.5,320.2H77.8v-19.4h17.7c11.2,0,16.2-7.6,21-19.1l10.6-43.6c2.5-8.4,8.4-27.9,25.6-38.2
		c-10.1-7-15.5-16.9-19.3-24c-6-11.1-8-14.8-20.8-14.8H91v-36.9l21.6-1.1c35.2,0,46.9,22.1,53.9,35c5.8,10.8,7,12.5,15.3,12.5h63
		c16.9,0,30.2,13.3,30.2,30.3c0,8-3,15.4-8.6,20.9c-5.8,5.8-13.9,8.9-22.9,8.9h-64.6c-5.6,0-10.5,0-15.8,18.4l-0.3,1.1l-11.1,31
		l-0.2,0.4C140.8,307.2,122,320.2,95.5,320.2z"/>
	<path fill="#91181C" d="M155.4,192.1h-33.3c-7.1,0-13.2,1.1-18.5,3c-6.2,5.8-12.4,10.1-19.2,13.2c-9.1,10.3-13,22.9-14.8,29.3
		c0,0-1.5,6.1-4.3,14.6c18.5-2.2,33.6-7.4,46.7-15.6c2.8-4.8,5.6-5.8,8.6-6C133.3,220.9,144.4,208,155.4,192.1z"/>
	<path fill="#26346C" d="M133.2,175.9c3.8,7,9.1,16.7,18.9,23.7l0.4,0h103.3c0,0,0-10.2-11.2-10.2c0,0-22.1,0-63,0
		c-40.9,0-22.3-47.1-68.8-47.1H90.8v19h21.5C125.1,161.3,127.2,164.8,133.2,175.9z"/>
	<path fill="#0989B0" d="M94.5,321H76.8l-13.2-20.6h20.3c26.6,0,41.4-62.5,41.4-62.5c3.5-11.9,13.9-45.5,52.6-45.5h91l-33.4,38.5
		h-57.6c-5.3,0-9.9,0.7-15.1,18.5l-0.4,1.1l-11.1,31l-0.2,0.5C140.4,307.9,121.3,321,94.5,321z"/>
	<path fill="#26346C" d="M235.5,211.5v19.2h8c9,0,17.2-3.2,22.9-9c2.9-2.9,5.2-6.4,6.6-10.2H235.5z"/>
	<path fill="#26346C" d="M151.3,282l0.2-0.5l11.1-31l0.4-1.1c3.3-10.5,10.3-18.5,23.6-18.5h48.9v-19.3c0,0-14.8,0-41.3,0
		c-13.1,0-28.8,0-37.1,8.9c-8.8,9.5-15.7,32.1-15.7,32.1c-6.7,19.5-11.8,47.9-41.1,47.9H76.9V321h17.7
		C121.5,321,140.5,307.9,151.3,282z"/>
	<path fill="#0989B0" d="M78.3,321c11.4,0,20.7-9.2,20.7-20.6H57.6C57.6,311.8,66.9,321,78.3,321z"/>
	<path fill="#EF8729" d="M77.8,0.5h-7.2C36.7,0.5,9.2,27.9,9.2,61.7s27.5,61.2,61.3,61.2c26.3,0,48.8-16.6,57.5-39.9H70.6
		c-11.8,0-21.4-9.6-21.4-21.4c0-11.8,9.6-21.4,21.4-21.4v-0.4h14.2"/>
	<path fill="#91181C" d="M99.1,87.7c5.7-8.9,11.1-16.4,16.1-22.6H68.3c-0.4,0.7-0.9,1.4-1.3,2.1c-9.8,16.3-5.2,23.7,3.5,31.9
		l23.7,4.2C94.1,98.4,95.6,93.2,99.1,87.7z"/>
	<path fill="#EF8729" d="M250.4,103.2c0,11.1-8.7,20.1-19.5,20.1l-140.9-0.4c-10.8,0-19.4-8.6-19.4-19.8c0-11.1,8.7-20.1,19.5-20.1
		h140.8C241.6,83.1,250.4,92.1,250.4,103.2z"/>
	<path fill="#EEBA37" d="M49.2,61.5c0-11.8,9.6-20.6,21.4-20.6h14.8c4-5,7.8-18.1,9.8-20.2c-8.5,0-15.3,0-24.6,0
		c-22.7,0-41.1,18.4-41.1,41c0,22.7,18.4,41.5,41.1,41.5c14.9,0,28-8.4,35.2-20.3H70.6C58.7,82.9,49.2,73.3,49.2,61.5z"/>
	<path fill="#EEBA37" d="M250.4,103.2c0-11.1-8.7-20.1-19.5-20.1H90.1c-10.8,0-19.5,9-19.5,20.1"/>
	<path fill="#EEBA37" d="M185.1,231.2v19.7v14.1v36.4c0,10.9,8.8,19.7,19.7,19.7c10.9,0,19.7-8.8,19.7-19.7v-36.4v-14.1v-19.7H185.1
		z"/>
	<path fill="#CE6C1C" d="M185.1,230.7V256c0,10.9,8.8,19.7,19.7,19.7c10.9,0,19.7-8.8,19.7-19.7v-25.3H185.1z"/>
	<path fill="#E42A25" d="M49.6,230.5c-10.5,0-19-8.5-19-19c0-10.5,8.5-19,19-19c40.3,0,59.1-12.1,87.3-56.4
		c31.3-49,61.7-70.9,98.5-70.9h19.8c10.5,0,19,8.5,19,19c0,10.5-8.5,19-19,19h-19.8c-15.1,0-36.3,6.1-66.4,53.3
		C138.4,204.5,110.3,230.5,49.6,230.5z"/>
	<path fill="#91181C" d="M49.6,230.5c60.7,0,88.8-26,119.4-74c30.2-47.3,51.4-53.3,66.4-53.3h19.8c10.5,0,19-8.5,19-19h-18.4h-0.3
		c-0.9,0-4.9,0-19.5,0c-23.5,0-49.9,11.1-82.5,62.1c-30.2,47.3-54,65.2-103.4,65.2H30.6C30.6,222,39.1,230.5,49.6,230.5z"/>
	<rect x="70.6" y="103.2" fill="#EF8729" width="52" height="19.8"/>
	<path fill="#26346C" d="M200.5,190.7c2.1-3.1,4.2-6.3,6.3-9.6c2.4-3.7,4.8-7.3,7-10.5l-33.4,0c-4.7,0-6.6-1.5-8.9-4
		c-7.6,11.4-13.2,17.6-20,24.2H200.5z"/>
	<ellipse fill="#91181C" cx="243" cy="70.8" rx="2.7" ry="2.7"/>
	<circle fill="#91181C" cx="243" cy="78.2" r="2.7"/>
	<circle fill="#E42A25" cx="243" cy="89.5" r="2.7"/>
	<circle fill="#E42A25" cx="243" cy="96.8" r="2.7"/>
	<circle fill="#91181C" cx="140.7" cy="141" r="2.7"/>
	<circle fill="#91181C" cx="147" cy="144.9" r="2.7"/>
	<path fill="#E42A25" d="M155.1,153.1c-1.2-0.8-1.6-2.4-0.8-3.7c0.8-1.2,2.4-1.6,3.7-0.8c1.3,0.8,1.6,2.4,0.8,3.7
		C158,153.5,156.4,153.9,155.1,153.1z"/>
	<circle fill="#E42A25" cx="162.8" cy="154.8" r="2.7"/>
	<circle fill="#91181C" cx="35.1" cy="198.7" r="2.7"/>
	<ellipse fill="#91181C" cx="35.1" cy="206" rx="2.7" ry="2.7"/>
	<circle fill="#E42A25" cx="35.1" cy="217.3" r="2.7"/>
	<circle fill="#E42A25" cx="35.1" cy="224.6" r="2.7"/>
	<circle fill="#26346C" cx="235.5" cy="198.7" r="2.7"/>
	<ellipse fill="#26346C" cx="235.5" cy="206" rx="2.7" ry="2.7"/>
	<ellipse fill="#26346C" cx="235.5" cy="176.2" rx="2.7" ry="2.7"/>
	<circle fill="#26346C" cx="235.5" cy="183.6" r="2.7"/>
	<circle fill="#0989B0" cx="235.5" cy="217.3" r="2.7"/>
	<circle fill="#0989B0" cx="235.5" cy="224.6" r="2.7"/>
	<circle fill="#26346C" cx="235.5" cy="7" r="2.7"/>
	<circle fill="#26346C" cx="235.5" cy="14.3" r="2.7"/>
	<circle fill="#0989B0" cx="235.5" cy="25.7" r="2.7"/>
	<circle fill="#0989B0" cx="235.5" cy="33" r="2.7"/>
	<circle fill="#26346C" cx="33.3" cy="129.2" r="2.7"/>
	<circle fill="#26346C" cx="33.3" cy="136.6" r="2.7"/>
	<circle fill="#0989B0" cx="33.3" cy="147.9" r="2.7"/>
	<circle fill="#0989B0" cx="33.3" cy="155.2" r="2.7"/>
	<circle fill="#EF8729" cx="74.5" cy="90.3" r="2.7"/>
	<circle fill="#EF8729" cx="74.5" cy="97.7" r="2.7"/>
	<circle fill="#EEBA37" cx="74.5" cy="109" r="2.7"/>
	<circle fill="#EEBA37" cx="74.5" cy="116.3" r="2.7"/>
	<circle fill="#EF8729" cx="74.5" cy="33.7" r="2.7"/>
	<circle fill="#EF8729" cx="74.5" cy="26.3" r="2.7"/>
	<circle fill="#EEBA37" cx="74.5" cy="15" r="2.7"/>
	<circle fill="#EEBA37" cx="74.5" cy="7.7" r="2.7"/>
	<path fill="#EEBA37" d="M70.3,0.5C36.4,0.5,9.2,27.2,9.2,62.1h39.7c0-11.8,9.6-21.4,21.4-21.4v-0.4h14.2V0.5L70.3,0.5z"/>
	<path fill="#EF8729" d="M49.2,62.1c0-11.8,9.6-21.2,21.4-21.2h14.8c4-5,14-18.1,16-20.2c-8.5,0-21.6,0-30.9,0
		c-22.7,0-41.1,18.8-41.1,41.4H49.2z"/>
	<circle fill="#EF8729" cx="74.5" cy="7.7" r="2.7"/>
	<ellipse fill="#EF8729" cx="74.5" cy="15" rx="2.7" ry="2.7"/>
	<circle fill="#EEBA37" cx="74.5" cy="26.3" r="2.7"/>
	<circle fill="#EEBA37" cx="74.5" cy="33.7" r="2.7"/>
	<path fill="#26346C" d="M255.1,190.8c0,0.8-0.6,1.4-1.4,1.4h-21.4c-0.8,0-1.4-0.6-1.4-1.4s0.6-1.4,1.4-1.4h21.4
		C254.4,189.4,255.1,190,255.1,190.8z"/>
	<path fill="#CE6C1C" d="M185.1,250.8v14.1v36.4c0,9.5,6.8,17.5,15.8,19.3v-73.9h-15.8V250.8z"/>
</g>
</svg>
