<?xml version="1.0" encoding="utf-8"?>
<!-- Generator: Adobe Illustrator 16.2.1, SVG Export Plug-In . SVG Version: 6.00 Build 0)  -->
<!DOCTYPE svg PUBLIC "-//W3C//DTD SVG 1.1//EN" "http://www.w3.org/Graphics/SVG/1.1/DTD/svg11.dtd">
<svg version="1.1" id="Layer_1" xmlns="http://www.w3.org/2000/svg" xmlns:xlink="http://www.w3.org/1999/xlink" x="0px" y="0px"
	 width="258px" height="385px" viewBox="0 0 258 385" enable-background="new 0 0 258 385" xml:space="preserve">
<g>
	<ellipse fill="#099B5D" cx="35.9" cy="97.9" rx="16.5" ry="16.5"/>
	<ellipse fill="#F18332" cx="240.9" cy="197.1" rx="16.2" ry="16.2"/>
	<rect x="175.7" y="367.7" fill="#53AFAC" width="13.8" height="7.9"/>
	<polygon fill="#3B4769" points="171.8,381.5 196.7,381.5 194.9,374.4 171.8,374.4 	"/>
	<polygon fill="#1F2E55" points="214,379.1 194.9,374.4 171.8,374.4 171.8,382.8 	"/>
	<rect x="171.8" y="379" fill="#D4D7DD" width="42.3" height="6"/>
	<path fill="#1F2E55" d="M191.1,369h3.7v7.2h-3.7c-2,0-3.6-1.6-3.6-3.6S189.1,369,191.1,369z"/>
	<polygon fill="#C51053" points="164.6,321.3 164.6,354.9 156.8,343.2 150.7,354.9 144.3,342.8 137,354.9 137,321.3 	"/>
	<path fill="#2A509B" d="M130.1,334.7l16-29l38.9,21.7c4.4,2.3,7.3,6.8,7.3,12V369h-20.2v-24.3L130.1,334.7z"/>
	<polygon fill="#3B4769" points="70.8,383.6 45.8,383.6 47.7,376.5 70.8,376.5 	"/>
	<rect x="53.1" y="367.7" fill="#53AFAC" width="13.8" height="7.9"/>
	<polygon fill="#1F2E55" points="28.5,379.1 47.7,374.4 70.8,374.4 70.8,382.8 	"/>
	<rect x="28.5" y="379" fill="#D4D7DD" width="42.3" height="6"/>
	<path fill="#1F2E55" d="M51.4,369h-3.7v7.2h3.7c2,0,3.6-1.6,3.6-3.6S53.4,369,51.4,369z"/>
	<path fill="#2A509B" d="M145.8,335.1H95.6c-10.4,0-18.8-8.4-18.8-18.8h87.8C164.6,326.6,156.2,335.1,145.8,335.1z"/>
	<path fill="#C51053" d="M66.4,223V290c0,24.1-19.5,43.6-43.7,43.6V223H66.4z"/>
	<path fill="#E83C74" d="M133.5,28.9c29.4,0,110.2,49.1,110.7,109.8H140.5v105.6l-117.8,0.3V138.7C23.3,78,72.6,28.9,133.5,28.9z"/>
	<path fill="#C51053" d="M202.7,314.5c3.2-3.9,5.5-8.6,6.5-13.7c-4.8,7.5-14.9,12.5-24.1,13.7c4.4-5.4,8-15.6,8-25.3
		c0-0.5,0-133.9,0-133.9h52.3c0,0,0,132.2,0,132.3h0c0,14.4-12.8,25-26.7,26.8c3-3.7,5.2-8.9,6.3-13.7
		C219.9,307.7,211.5,313.3,202.7,314.5z"/>
	<rect x="135.3" y="119.7" fill="#E83C74" width="105.6" height="48.7"/>
	<polygon fill="#232323" points="183.7,241.9 183.7,275.9 164.9,275.9 164.9,316.2 89.9,316.2 89.9,241.9 	"/>
	<rect x="76.8" y="251.2" fill="#010202" width="56.5" height="65"/>
	<path fill="#F18332" d="M126.3,261.8c0,4,3.2,7.2,7.2,7.2c4,0,7.2-3.2,7.2-7.2v-5.6c0-4-3.2-7.2-7.2-7.2c-4,0-7.2,3.2-7.2,7.2
		V261.8z"/>
	<path fill="#F18332" d="M89,224.8c0,20.7,16.8,37.5,37.5,37.5h8.6c20.7,0,37.5-16.8,37.5-37.5c0-20.7-16.8-37.5-37.5-37.5h-8.6
		C105.8,187.3,89,204.1,89,224.8z"/>
	<rect x="72" y="246.8" fill="#D19703" width="21.8" height="24.4"/>
	<path fill="#7C3811" d="M111.8,184.3l-4.8-30.9c13.5,0,14.2,1.9,32.4,1.9c15.7,0,37.8,25.7,37.8,48.8c0,18.2-5.5,38.1-5.5,38.1
		l-31.8,10.3l4.1-15.9c0,0-16,17.4-39.6,17.4c-19.3,0-21.5-22.2-21.5-22.2v-47.5H111.8z"/>
	<path fill="#F3CE86" d="M227.8,163.4v47.5c0,22.3-18.1,40.4-40.3,40.4c-22.3,0-40.3-18.1-40.3-40.4v-47.5H227.8z"/>
	<path fill="#0E7D4D" d="M165.1,282c0,8.7,7.1,15.8,15.8,15.8c8.7,0,15.8-7.1,15.8-15.8v-71.6c0-8.7-7.1-8.2-15.8-8.2v21.3
		c-8.7,0-15.8,7.1-15.8,15.8V282z"/>
	<path fill="#099B5D" d="M181.3,297.8c-0.2,0-0.4,0-0.6,0c-8.7,0-15.8-7.1-15.8-15.8v-83.4c0-4.7,2-0.3,5.3-3.2l11.1,4V297.8z"/>
	<path fill="#E83C74" d="M245.3,163.4v47.5c0,22.3-18.1,40.4-40.3,40.4c-22.3,0-40.3-18.1-40.3-40.4v-47.5H245.3z"/>
	<path fill="#E32267" d="M119.6,29.7c4.3-0.5,8.7-0.8,13.1-0.8c42,0,89.3,43.8,89.8,104.5C222.6,76.2,185.1,29.7,119.6,29.7z"/>
	<path fill="#E32267" d="M215.8,229.6v-68.3h29.4v49.8c0,20.1-14.2,40.1-40.2,40.1C210.7,251.2,215.8,242.3,215.8,229.6z"/>
	<path fill="#E32267" d="M216.3,162c0,11.5,9.3,20.9,20.9,20.9c11.5,0,20.9-9.3,20.9-20.9v-29.3c0-11.5-9.3-20.9-20.9-20.9
		c-11.5,0-20.9,9.3-20.9,20.9V162z"/>
	<polygon fill="#C51053" points="66.4,144.1 22.7,244.7 66.4,257.9 	"/>
	<path fill="#F18332" d="M51.2,233L51.2,233l6.5-23.1c-3.8-2.8-6.4-7.2-6.4-12.3c0-8.4,6.8-15.2,15.2-15.2v43.8h4.8V244H59.8
		c-4.9,0-8.9-4-8.9-8.9C50.9,234.4,51,233.7,51.2,233z"/>
	<path fill="#E83C74" d="M76,314.5c3.2-3.9,5.5-8.6,6.5-13.7c-4.8,7.5-14.9,12.5-24.1,13.7c4.4-5.4,8-15.6,8-25.3
		c0-0.5,0-195.8,0-195.8h52.3c0,0,0,194.2,0,194.3h0c0,14.4-12.8,25-26.7,26.8c3-3.7,5.2-8.9,6.3-13.7
		C93.3,307.7,84.9,313.3,76,314.5z"/>
	<path fill="#E83C74" d="M147,171.4c0,0-28.4,1.9-28.4,34.9c0,32.9-19.9-72.9-19.9-72.9l36.5,13.6L147,171.4z"/>
	<path fill="#1F2E55" d="M57.3,327.3l19.6-11.1h56.2c0,10.4-8.4,18.8-18.8,18.8h-3.5l-40.8,12V369H49.7v-29.5
		C49.7,334.1,52.8,329.5,57.3,327.3z"/>
	<path fill="#F3CE86" d="M166.2,143.2c0-14.1-1.4-22.4-15.5-22.4c-14.1,0-25.5,11.4-25.5,25.5c0,14.1,11.4,25.5,25.5,25.5
		C164.8,171.7,166.2,157.2,166.2,143.2z"/>
	<polygon fill="#C51053" points="49.7,321.3 49.7,354.2 42,342.7 36.1,354.2 29.8,342.3 22.7,354.2 22.7,321.3 	"/>
	<rect x="216.5" y="129.9" fill="#E83C74" width="17.1" height="32.7"/>
	<path fill="#E83C74" d="M233.6,161.3c0,21.4-17.8,23.3-17.8,44.9s-12.9-14.6-12.9-14.6l13.6-35.3L233.6,161.3z"/>
	<rect x="192.4" y="111.8" fill="#E83C74" width="26.9" height="31.4"/>
	<path fill="#099B5D" d="M193.6,59.4c-17.6-17.7-42-28.8-69-28.7C88.5,30.9,59,51.4,39.3,81.4l-2.5-1.1c-6.9-5.2-8.2-15.1-2.9-21.9
		c5.2-6.8,14.8-8.1,21.6-3.1l-3-4c-5.2-6.9-3.8-16.7,3.1-21.9c6.9-5.2,16.7-3.8,21.9,3.1l2.1,2.8l-2.6-9c-2.4-8.3,2.3-17,10.6-19.4
		c8.3-2.4,17,2.3,19.4,10.6l2.8,9.4l0.6-11.9c0.4-8.6,7.7-15.3,16.4-14.9c8.6,0.4,15.3,7.7,14.9,16.4l0.4,10.8l3.8-9.7
		c3.2-8,12.3-12,20.3-8.8c8,3.2,12,12.3,8.8,20.3l-2.7,7.8l6-6.4c5.9-6.3,15.7-6.7,22.1-0.9c6.3,5.9,6.7,15.8,0.9,22.1L193.6,59.4z"
		/>
	<path fill="#099B5D" d="M200.7,51.5c7-5.1,18.5-2,23.6,5c4.8,6.6,4.9,17-1.1,22.3c7.9-2,16.3,2.9,18.9,10.8c2.7,8.2-1.8,17-10,19.7
		l-11.3,3.7c-3.2-20.7-14.7-40.9-28.9-55.1L200.7,51.5z"/>
	<path fill="#099B5D" d="M219.8,111.2l6-4.1c7.1-4.8,16.7-3,21.5,4c4.8,7.1,3,16.7-4,21.6l-5.9,4.1L219.8,111.2z"/>
	<path fill="#E83C74" d="M204.9,135.6c0,7.9,6.4,14.3,14.3,14.3c7.9,0,14.3-6.4,14.3-14.3v-11.5c0-7.9-6.4-14.3-14.3-14.3
		c-7.9,0-14.3,6.4-14.3,14.3V135.6z"/>
	<path fill="#C51053" d="M195.7,239.3c0-2.4,2-4.4,4.4-4.4c1.3,0,2.5,0.6,3.3,1.5l0,0c3.1,3.1,3.3,9.3-1.2,13.2c0,0,0.3-4.2-3.8-6.2
		l0,0C196.9,242.7,195.7,241.1,195.7,239.3z"/>
	<rect y="269.6" fill="#FFFFFF" width="22.7" height="23"/>
	<path fill="#787576" d="M12,284.6l-2.7,3.7c-0.8,0.9-2.1,0.9-3,0.1s-0.9-2.1-0.1-3l3.2-4.4l-3.2-4.4c-0.8-0.9-0.7-2.2,0.1-3
		c0.9-0.8,2.2-0.7,3,0.1l2.7,3.7l2.7-3.7c0.8-0.9,2.1-0.9,3-0.1c0.9,0.8,0.9,2.1,0.1,3l-3.2,4.4l3.2,4.4c0.8,0.9,0.7,2.2-0.1,3
		c-0.9,0.8-2.2,0.7-3-0.1L12,284.6z"/>
	<path fill="#FFFFFF" d="M115.9,305.3c0,6,4.9,10.9,10.9,10.9h19.9c6,0,10.9-4.9,10.9-10.9c0-6-4.9-10.9-10.9-10.9h-19.9
		C120.8,294.4,115.9,299.3,115.9,305.3z"/>
	<polygon fill="#FFFFFF" points="144.7,302.9 133.5,283.5 122.3,302.9 	"/>
	<circle fill="#010202" cx="145.6" cy="305.3" r="2.4"/>
	<circle fill="#010202" cx="136.4" cy="305.3" r="2.4"/>
	<circle fill="#010202" cx="127.2" cy="305.3" r="2.4"/>
	<path fill="#E32267" d="M179.4,161.7c0,11.5,8.7,20.9,20.9,20.9c11.5,0,20.9-9.3,20.9-20.9v-29.3c0-11.5-9.3-20.9-20.9-20.9
		c-11.5,0-20.9,9.3-20.9,20.9V161.7z"/>
	<path fill="#099B5D" d="M233.5,131.3l5.3,0.4c6.3-0.1,11.5,5,11.6,11.3c0,3-1.1,5.8-3,7.8l0,0l-0.1,0.1c-0.4,0.4-0.7,0.7-1.1,1.1
		l-12.7,11.9v-9.3h0V131.3z"/>
	<polygon fill="#FFFFFF" points="176.6,179.8 164.6,186.3 164.6,173.2 	"/>
	<polygon fill="#FFFFFF" points="164.6,199.3 164.6,186.3 176.6,192.8 	"/>
	<polygon fill="#FFFFFF" points="164.6,212.3 164.6,199.3 176.6,205.9 	"/>
	<path fill="#F3CE86" d="M125.3,143.3c0,11.6,9.4,20.9,20.9,20.9c11.5,0,20.9-9.4,20.9-20.9v-21.1c0-11.6-9.4-20.9-20.9-20.9
		c-11.5,0-20.9,9.4-20.9,20.9V143.3z"/>
	<path fill="#E83C74" d="M172,122.4l-1.3,53.2c-13.3-4.1-22.8-13.1-22.8-26.9C148,134.9,158.6,123.6,172,122.4z"/>
	<path fill="#C51053" d="M160.8,147.8c0-8.3,6.8-15.1,15.1-15.1c8.1,0,14.7,6.4,15,14.5l0,0v33.4c0,0-3.2-1.9-4.5-3
		c-4.7-4.1-19.6-17.6-19.6-17.6l0,0C163.2,157.1,160.8,152.7,160.8,147.8z"/>
	<path fill="#010202" d="M175.9,153l-3.3,4.5c-0.9,1-2.5,1.1-3.6,0.2c-1-1-1.1-2.6-0.2-3.6l3.9-5.3l-3.9-5.4c-0.9-1-0.9-2.6,0.2-3.6
		c1-0.9,2.6-0.9,3.6,0.2l3.3,4.5l3.2-4.5c1-1,2.6-1.1,3.6-0.2c1,1,1.1,2.6,0.2,3.6l-3.9,5.4l3.9,5.3c0.9,1,0.9,2.6-0.2,3.6
		c-1,0.9-2.6,0.9-3.6-0.2L175.9,153z"/>
</g>
</svg>
