<?xml version="1.0" encoding="utf-8"?>
<!-- Generator: Adobe Illustrator 16.2.1, SVG Export Plug-In . SVG Version: 6.00 Build 0)  -->
<!DOCTYPE svg PUBLIC "-//W3C//DTD SVG 1.1//EN" "http://www.w3.org/Graphics/SVG/1.1/DTD/svg11.dtd">
<svg version="1.1" id="Layer_1" xmlns="http://www.w3.org/2000/svg" xmlns:xlink="http://www.w3.org/1999/xlink" x="0px" y="0px"
	 width="273px" height="326px" viewBox="0 0 273 326" enable-background="new 0 0 273 326" xml:space="preserve">
<g>
	<path fill="#FFFFFF" d="M273,138.6c0,0,0,0.1,0,0.1C273,138.7,273,138.7,273,138.6 M273,138.5c0,0,0,0.1,0,0.1
		C273,138.6,273,138.6,273,138.5 M273,138.4c0,0,0,0.1,0,0.1C273,138.5,273,138.5,273,138.4 M273,138.3c0,0,0,0.1,0,0.1
		C273,138.4,273,138.4,273,138.3 M273,138.2c0,0,0,0.1,0,0.1C273,138.3,273,138.3,273,138.2 M273,138.1c0,0,0,0.1,0,0.1
		C273,138.2,273,138.1,273,138.1 M273,138c0,0,0,0.1,0,0.1C273,138.1,273,138,273,138 M273,137.8c0,0.1,0,0.1,0,0.2
		C273,137.9,273,137.9,273,137.8 M273,137.7c0,0,0,0.1,0,0.1C273,137.8,273,137.7,273,137.7 M273,137.6
		C273,137.6,273,137.7,273,137.6C273,137.7,273,137.6,273,137.6 M273,137.5C273,137.5,273,137.5,273,137.5
		C273,137.5,273,137.5,273,137.5 M273,137.4C273,137.4,273,137.4,273,137.4C273,137.4,273,137.4,273,137.4 M273,137.3
		C273,137.3,273,137.3,273,137.3C273,137.3,273,137.3,273,137.3 M273,137.2C273,137.2,273,137.2,273,137.2
		C273,137.2,273,137.2,273,137.2 M273,137.1C273,137.1,273,137.1,273,137.1C273,137.1,273,137.1,273,137.1 M273,136.9
		C273,137,273,137,273,136.9C273,137,273,137,273,136.9 M273,136.8C273,136.9,273,136.9,273,136.8C273,136.9,273,136.9,273,136.8
		 M273,136.7C273,136.8,273,136.8,273,136.7C273,136.8,273,136.8,273,136.7 M273,136.6C273,136.7,273,136.7,273,136.6
		C273,136.7,273,136.7,273,136.6 M273,136.5C273,136.6,273,136.6,273,136.5C273,136.6,273,136.5,273,136.5 M273,136.4
		c0,0,0,0.1,0,0.1C273,136.5,273,136.4,273,136.4 M273,136.3c0,0,0,0.1,0,0.1C273,136.4,273,136.3,273,136.3L273,136.3 M273,136.1
		c0,0.1,0,0.2,0,0.2C273,136.2,273,136.1,273,136.1 M273,135.9C273,135.9,273,135.9,273,135.9C273,135.9,273,135.9,273,135.9
		 M273,135.5c0,0.1,0,0.2,0,0.3C273,135.7,273,135.6,273,135.5 M273,135.5C273,135.5,273,135.5,273,135.5
		C273,135.5,273,135.5,273,135.5 M273,135.1C273,135.1,273,135.2,273,135.1C273,135.2,273,135.1,273,135.1 M273,133.5
		C273,133.5,273,133.5,273,133.5C273,133.5,273,133.5,273,133.5 M273,133.4C273,133.4,273,133.4,273,133.4
		C273,133.4,273,133.4,273,133.4 M273,133.4C273,133.4,273,133.4,273,133.4C273,133.4,273,133.4,273,133.4 M273,133.2
		c0,0,0,0.1,0,0.1C273,133.3,273,133.3,273,133.2 M273,133.1c0,0,0,0.1,0,0.1C273,133.2,273,133.2,273,133.1 M273,133.1
		C273,133.1,273,133.1,273,133.1C273,133.1,273,133.1,273,133.1 M273,133C273,133,273,133,273,133C273,133,273,133,273,133 M273,133
		C273,133,273,133,273,133C273,133,273,133,273,133 M273,132.9L273,132.9L273,132.9 M273,132.9C273,132.9,273,132.9,273,132.9
		C273,132.9,273,132.9,273,132.9 M273,132.8C273,132.8,273,132.8,273,132.8C273,132.8,273,132.8,273,132.8 M273,132.8
		C273,132.8,273,132.8,273,132.8C273,132.8,273,132.8,273,132.8 M273,132.7C273,132.7,273,132.7,273,132.7
		C273,132.7,273,132.7,273,132.7 M273,132.7C273,132.7,273,132.7,273,132.7C273,132.7,273,132.7,273,132.7 M273,132.6L273,132.6
		L273,132.6 M272.9,132.6L272.9,132.6L272.9,132.6 M272.9,132.5L272.9,132.5L272.9,132.5 M272.9,132.2L272.9,132.2L272.9,132.2
		 M272.9,132.2L272.9,132.2L272.9,132.2 M272.9,131.8L272.9,131.8L272.9,131.8 M272.9,131.8C272.9,131.8,272.9,131.8,272.9,131.8
		C272.9,131.8,272.9,131.8,272.9,131.8 M272.9,131.7L272.9,131.7L272.9,131.7 M272.9,130.2L272.9,130.2L272.9,130.2 M272.7,127.4
		L272.7,127.4L272.7,127.4 M272.7,126.6C272.7,126.6,272.7,126.6,272.7,126.6L272.7,126.6 M272.6,126.1L272.6,126.1L272.6,126.1
		 M272.6,125.9L272.6,125.9L272.6,125.9 M272.5,124L272.5,124L272.5,124 M272.4,123.7L272.4,123.7L272.4,123.7 M272.4,123.5
		C272.4,123.5,272.4,123.5,272.4,123.5L272.4,123.5 M272.4,123.5C272.4,123.5,272.4,123.5,272.4,123.5
		C272.4,123.5,272.4,123.5,272.4,123.5 M272.4,123.4L272.4,123.4L272.4,123.4 M272.3,122.7L272.3,122.7L272.3,122.7 M272.3,122.4
		L272.3,122.4L272.3,122.4 M272.3,122.4C272.3,122.4,272.3,122.4,272.3,122.4L272.3,122.4 M272.3,122.3
		C272.3,122.3,272.3,122.3,272.3,122.3C272.3,122.3,272.3,122.3,272.3,122.3 M272.3,122.3C272.3,122.3,272.3,122.3,272.3,122.3
		L272.3,122.3 M272.3,122.2C272.3,122.2,272.3,122.2,272.3,122.2L272.3,122.2 M272.3,122.1C272.3,122.2,272.3,122.1,272.3,122.1
		L272.3,122.1 M272.3,122.1C272.3,122.1,272.3,122.1,272.3,122.1L272.3,122.1 M272.3,122C272.3,122,272.3,122,272.3,122
		C272.3,122,272.3,122,272.3,122 M272.3,122L272.3,122L272.3,122 M272.2,121.9C272.2,121.9,272.2,121.9,272.2,121.9L272.2,121.9
		 M272.2,121.8C272.2,121.8,272.2,121.8,272.2,121.8L272.2,121.8 M272.2,121.7C272.2,121.7,272.2,121.7,272.2,121.7
		C272.2,121.7,272.2,121.7,272.2,121.7 M272.2,121.7C272.2,121.7,272.2,121.7,272.2,121.7C272.2,121.7,272.2,121.7,272.2,121.7
		 M272.2,121.6C272.2,121.6,272.2,121.6,272.2,121.6C272.2,121.6,272.2,121.6,272.2,121.6 M272.2,121.6
		C272.2,121.6,272.2,121.6,272.2,121.6C272.2,121.6,272.2,121.6,272.2,121.6 M272.2,121.5C272.2,121.5,272.2,121.5,272.2,121.5
		C272.2,121.5,272.2,121.5,272.2,121.5 M272.2,121.4C272.2,121.5,272.2,121.5,272.2,121.4C272.2,121.5,272.2,121.5,272.2,121.4
		 M272.2,121.4C272.2,121.4,272.2,121.4,272.2,121.4C272.2,121.4,272.2,121.4,272.2,121.4 M272.2,121.3
		C272.2,121.3,272.2,121.3,272.2,121.3L272.2,121.3 M272.2,121.1L272.2,121.1L272.2,121.1 M272.2,121C272.2,121,272.2,121,272.2,121
		L272.2,121 M272.1,121C272.1,121,272.1,121,272.1,121L272.1,121 M272.1,120.9C272.1,120.9,272.1,120.9,272.1,120.9L272.1,120.9
		 M272.1,120.9C272.1,120.9,272.1,120.9,272.1,120.9C272.1,120.9,272.1,120.9,272.1,120.9 M272.1,120.8
		C272.1,120.8,272.1,120.8,272.1,120.8C272.1,120.8,272.1,120.8,272.1,120.8 M272.1,120.8C272.1,120.8,272.1,120.8,272.1,120.8
		C272.1,120.8,272.1,120.8,272.1,120.8 M272.1,120.7C272.1,120.7,272.1,120.7,272.1,120.7C272.1,120.7,272.1,120.7,272.1,120.7
		 M272.1,120.6C272.1,120.6,272.1,120.6,272.1,120.6C272.1,120.6,272.1,120.6,272.1,120.6 M272.1,120.6
		C272.1,120.6,272.1,120.6,272.1,120.6L272.1,120.6 M272.1,120.5C272.1,120.5,272.1,120.5,272.1,120.5
		C272.1,120.5,272.1,120.5,272.1,120.5 M272.1,120.5C272.1,120.5,272.1,120.5,272.1,120.5C272.1,120.5,272.1,120.5,272.1,120.5
		 M272.1,120.4C272.1,120.4,272.1,120.4,272.1,120.4C272.1,120.4,272.1,120.4,272.1,120.4 M272.1,120.4
		C272.1,120.4,272.1,120.4,272.1,120.4C272.1,120.4,272.1,120.4,272.1,120.4 M272.1,120.3C272.1,120.3,272.1,120.3,272.1,120.3
		L272.1,120.3 M272.1,120.3C272.1,120.3,272.1,120.3,272.1,120.3L272.1,120.3 M272.1,120.2C272.1,120.2,272.1,120.2,272.1,120.2
		C272.1,120.2,272.1,120.2,272.1,120.2 M272.1,120.2C272.1,120.2,272.1,120.2,272.1,120.2C272.1,120.2,272.1,120.2,272.1,120.2
		 M272,120.1C272,120.1,272,120.1,272,120.1C272,120.1,272,120.1,272,120.1 M272,120.1C272,120.1,272,120.1,272,120.1
		C272,120.1,272,120.1,272,120.1 M272,120C272,120,272,120,272,120C272,120,272,120,272,120 M272,119.9
		C272,119.9,272,119.9,272,119.9C272,119.9,272,119.9,272,119.9 M272,119.9C272,119.9,272,119.9,272,119.9
		C272,119.9,272,119.9,272,119.9 M272,119.8C272,119.8,272,119.8,272,119.8C272,119.8,272,119.8,272,119.8 M272,119.8
		C272,119.8,272,119.8,272,119.8C272,119.8,272,119.8,272,119.8 M272,119.7C272,119.7,272,119.7,272,119.7
		C272,119.7,272,119.7,272,119.7 M272,119.7C272,119.7,272,119.7,272,119.7C272,119.7,272,119.7,272,119.7 M272,119.6
		C272,119.6,272,119.6,272,119.6C272,119.6,272,119.6,272,119.6 M272,119.6C272,119.6,272,119.6,272,119.6
		C272,119.6,272,119.6,272,119.6 M272,119.5C272,119.5,272,119.5,272,119.5C272,119.5,272,119.5,272,119.5 M272,119.4
		C272,119.5,272,119.5,272,119.4C272,119.5,272,119.5,272,119.4 M272,119.4C272,119.4,272,119.4,272,119.4
		C272,119.4,272,119.4,272,119.4 M272,119.3C272,119.4,272,119.4,272,119.3C272,119.4,272,119.4,272,119.3 M271.9,119.3
		C271.9,119.3,271.9,119.3,271.9,119.3C271.9,119.3,271.9,119.3,271.9,119.3 M271.9,119.2C271.9,119.3,271.9,119.3,271.9,119.2
		C271.9,119.3,271.9,119.3,271.9,119.2 M271.9,119.2C271.9,119.2,271.9,119.2,271.9,119.2C271.9,119.2,271.9,119.2,271.9,119.2
		 M271.9,119.1C271.9,119.1,271.9,119.1,271.9,119.1C271.9,119.2,271.9,119.1,271.9,119.1 M271.9,119.1
		C271.9,119.1,271.9,119.1,271.9,119.1C271.9,119.1,271.9,119.1,271.9,119.1 M271.9,119C271.9,119,271.9,119,271.9,119
		C271.9,119,271.9,119,271.9,119 M271.9,119C271.9,119,271.9,119,271.9,119C271.9,119,271.9,119,271.9,119 M271.9,118.9
		C271.9,118.9,271.9,118.9,271.9,118.9C271.9,118.9,271.9,118.9,271.9,118.9 M271.9,118.9C271.9,118.9,271.9,118.9,271.9,118.9
		C271.9,118.9,271.9,118.9,271.9,118.9 M271.9,118.8C271.9,118.8,271.9,118.8,271.9,118.8C271.9,118.8,271.9,118.8,271.9,118.8
		 M271.9,118.8C271.9,118.8,271.9,118.8,271.9,118.8C271.9,118.8,271.9,118.8,271.9,118.8 M271.9,118.7
		C271.9,118.7,271.9,118.7,271.9,118.7C271.9,118.7,271.9,118.7,271.9,118.7 M271.9,118.6C271.9,118.7,271.9,118.7,271.9,118.6
		C271.9,118.7,271.9,118.7,271.9,118.6 M271.9,118.6C271.9,118.6,271.9,118.6,271.9,118.6C271.9,118.6,271.9,118.6,271.9,118.6
		 M271.9,118.5C271.9,118.6,271.9,118.6,271.9,118.5C271.9,118.6,271.9,118.6,271.9,118.5 M271.8,118.5
		C271.8,118.5,271.8,118.5,271.8,118.5C271.8,118.5,271.8,118.5,271.8,118.5 M271.8,118.4C271.8,118.4,271.8,118.5,271.8,118.4
		C271.8,118.5,271.8,118.4,271.8,118.4 M271.8,118.4C271.8,118.4,271.8,118.4,271.8,118.4C271.8,118.4,271.8,118.4,271.8,118.4
		 M271.8,118.3C271.8,118.3,271.8,118.4,271.8,118.3C271.8,118.4,271.8,118.3,271.8,118.3 M271.8,118.3
		C271.8,118.3,271.8,118.3,271.8,118.3C271.8,118.3,271.8,118.3,271.8,118.3 M271.8,118.2C271.8,118.2,271.8,118.2,271.8,118.2
		C271.8,118.2,271.8,118.2,271.8,118.2 M271.8,118.2C271.8,118.2,271.8,118.2,271.8,118.2C271.8,118.2,271.8,118.2,271.8,118.2
		 M271.8,118.1C271.8,118.1,271.8,118.1,271.8,118.1C271.8,118.1,271.8,118.1,271.8,118.1 M271.8,118.1
		C271.8,118.1,271.8,118.1,271.8,118.1C271.8,118.1,271.8,118.1,271.8,118.1 M271.8,118C271.8,118,271.8,118,271.8,118
		C271.8,118,271.8,118,271.8,118 M271.8,118C271.8,118,271.8,118,271.8,118C271.8,118,271.8,118,271.8,118 M271.8,117.9
		C271.8,117.9,271.8,117.9,271.8,117.9C271.8,117.9,271.8,117.9,271.8,117.9 M271.8,117.9C271.8,117.9,271.8,117.9,271.8,117.9
		C271.8,117.9,271.8,117.9,271.8,117.9 M271.8,117.8C271.8,117.8,271.8,117.8,271.8,117.8C271.8,117.8,271.8,117.8,271.8,117.8
		 M271.7,117.8C271.7,117.8,271.7,117.8,271.7,117.8C271.7,117.8,271.7,117.8,271.7,117.8 M271.7,117.7
		C271.7,117.7,271.7,117.7,271.7,117.7C271.7,117.7,271.7,117.7,271.7,117.7 M271.7,117.6C271.7,117.7,271.7,117.7,271.7,117.6
		C271.7,117.7,271.7,117.7,271.7,117.6 M271.7,117.6C271.7,117.6,271.7,117.6,271.7,117.6C271.7,117.6,271.7,117.6,271.7,117.6
		 M271.7,117.5C271.7,117.5,271.7,117.5,271.7,117.5C271.7,117.6,271.7,117.5,271.7,117.5 M271.7,117.5
		C271.7,117.5,271.7,117.5,271.7,117.5C271.7,117.5,271.7,117.5,271.7,117.5 M271.7,117.4C271.7,117.4,271.7,117.4,271.7,117.4
		C271.7,117.4,271.7,117.4,271.7,117.4 M271.7,117.4C271.7,117.4,271.7,117.4,271.7,117.4C271.7,117.4,271.7,117.4,271.7,117.4
		 M271.7,117.3C271.7,117.3,271.7,117.3,271.7,117.3C271.7,117.3,271.7,117.3,271.7,117.3 M271.7,117.3
		C271.7,117.3,271.7,117.3,271.7,117.3C271.7,117.3,271.7,117.3,271.7,117.3 M271.7,117.2C271.7,117.2,271.7,117.2,271.7,117.2
		C271.7,117.2,271.7,117.2,271.7,117.2 M271.7,117.2C271.7,117.2,271.7,117.2,271.7,117.2C271.7,117.2,271.7,117.2,271.7,117.2
		 M271.7,117.1C271.7,117.1,271.7,117.1,271.7,117.1C271.7,117.1,271.7,117.1,271.7,117.1 M271.6,117
		C271.7,117.1,271.7,117.1,271.6,117C271.7,117.1,271.7,117.1,271.6,117 M271.6,117C271.6,117,271.6,117,271.6,117
		C271.6,117,271.6,117,271.6,117 M271.6,116.9C271.6,117,271.6,117,271.6,116.9C271.6,117,271.6,117,271.6,116.9 M271.6,116.9
		C271.6,116.9,271.6,116.9,271.6,116.9C271.6,116.9,271.6,116.9,271.6,116.9 M271.6,116.8C271.6,116.8,271.6,116.9,271.6,116.8
		C271.6,116.9,271.6,116.8,271.6,116.8 M271.6,116.8C271.6,116.8,271.6,116.8,271.6,116.8C271.6,116.8,271.6,116.8,271.6,116.8
		 M271.6,116.7C271.6,116.7,271.6,116.8,271.6,116.7C271.6,116.8,271.6,116.7,271.6,116.7 M271.6,116.7
		C271.6,116.7,271.6,116.7,271.6,116.7C271.6,116.7,271.6,116.7,271.6,116.7 M271.6,116.6C271.6,116.6,271.6,116.6,271.6,116.6
		C271.6,116.6,271.6,116.6,271.6,116.6 M271.6,116.6C271.6,116.6,271.6,116.6,271.6,116.6C271.6,116.6,271.6,116.6,271.6,116.6
		 M271.6,116.5C271.6,116.5,271.6,116.5,271.6,116.5C271.6,116.5,271.6,116.5,271.6,116.5 M271.6,116.5
		C271.6,116.5,271.6,116.5,271.6,116.5C271.6,116.5,271.6,116.5,271.6,116.5 M271.5,116.2c0,0.1,0,0.2,0,0.3
		C271.6,116.4,271.5,116.3,271.5,116.2 M136.5,0C61.1,0,0,61,0,136.3c0,75.3,61.1,136.3,136.5,136.3c74.6,0,135.2-59.7,136.5-133.9
		c-0.6,35.4-14.7,67.4-37.4,91.3h-0.8l0,0H38.1c25-17.8,59.8-28.9,98.3-28.9c0,0,0,0,0.1,0v-52.8H76.3l24-29.7h2.4h33.9V61.2
		c-1.5-0.9-2.5-2.5-2.5-4.3s1-3.4,2.5-4.3L136.5,0c68.6,0,125.3,50.5,135,116.2C261.8,50.4,205,0,136.5,0"/>
	<polygon fill="#CD2725" points="13.3,284.8 255.8,284.8 235.6,230.1 38.1,230.1 	"/>
	<path fill="#ECB221" d="M136.4,201.2c-38.5,0-73.3,11-98.3,28.9h196.7l0,0h-98.2v-22.8h-0.1L136.4,201.2
		C136.5,201.2,136.4,201.2,136.4,201.2"/>
	<polygon fill="#6D1511" points="136.4,230.1 235.6,230.1 255.8,284.8 136.4,284.8 	"/>
	<ellipse fill="#36B7E5" cx="28.2" cy="101.3" rx="5" ry="5"/>
	<path fill="#C5C6C6" d="M85.2,99.5c0-2.7-2.2-5-5-5c-2.7,0-5,2.2-5,5c0,2.7,2.2,5,5,5C83,104.4,85.2,102.2,85.2,99.5z"/>
	<ellipse fill="#CD2725" cx="56.8" cy="51.9" rx="5" ry="5"/>
	<path fill="#36B7E5" d="M136.6,52.6c-1.5,0.9-2.5,2.5-2.5,4.3s1,3.4,2.5,4.3V52.6"/>
	<ellipse fill="#C5C6C6" cx="101.9" cy="55.1" rx="5" ry="5"/>
	<ellipse fill="#CD2725" cx="103.6" cy="30.9" rx="5" ry="5"/>
	<circle fill="#36B7E5" cx="61.8" cy="159.2" r="5"/>
	<ellipse fill="#36B7E5" cx="66.7" cy="185.9" rx="5" ry="5"/>
	<ellipse fill="#C5C6C6" cx="33.1" cy="133.5" rx="5" ry="5"/>
	<ellipse fill="#CD2725" cx="28.2" cy="189.5" rx="5" ry="5"/>
	<ellipse fill="#CD2725" cx="54.7" cy="94.5" rx="5" ry="5"/>
	<ellipse fill="#36B7E5" cx="129.1" cy="85.3" rx="5" ry="5"/>
	<ellipse fill="#ECB221" cx="106.9" cy="106.2" rx="5" ry="5"/>
	<ellipse fill="#ECB221" cx="66.7" cy="111.2" rx="5" ry="5"/>
	<ellipse fill="#ECB221" cx="38.1" cy="164.7" rx="5" ry="5"/>
	<polyline fill="#6D1511" points="136.6,148.4 136.5,148.4 136.5,201.2 136.5,207.2 136.6,207.2 136.6,148.4 	"/>
	<polyline fill="#6D1511" points="102.7,118.6 100.3,118.6 76.3,148.4 136.5,148.4 136.6,148.4 126.7,148.4 102.7,118.6 	"/>
	<polygon fill="#CD2725" points="90.2,147.8 111.8,118.6 136.5,136.3 136.5,207.2 90.2,207.2 	"/>
	<polyline fill="#6D1511" points="136.6,118.6 102.7,118.6 126.7,148.4 136.6,148.4 136.6,118.6 	"/>
	<polygon fill="#FFFFFF" points="118,207.2 126.5,207.2 126.5,148.4 118,137.3 	"/>
	<polygon fill="#FFFFFF" points="98.4,207.2 107,207.2 107,124.7 98.4,136.2 	"/>
	<ellipse fill="#6D1511" cx="112.3" cy="148.1" rx="7.8" ry="7.8"/>
	<path fill="#CECECD" d="M273,138.7L273,138.7L273,138.7 M273,138.6L273,138.6L273,138.6 M273,138.5L273,138.5L273,138.5 M273,138.4
		C273,138.4,273,138.4,273,138.4C273,138.4,273,138.4,273,138.4 M273,138.3L273,138.3L273,138.3 M273,138.2L273,138.2L273,138.2
		 M273,138.1L273,138.1L273,138.1 M273,138C273,138,273,138,273,138L273,138 M273,137.8L273,137.8L273,137.8 M273,137.7
		C273,137.7,273,137.7,273,137.7L273,137.7 M273,137.6C273,137.6,273,137.6,273,137.6C273,137.6,273,137.6,273,137.6 M273,137.5
		L273,137.5C273,137.5,273,137.5,273,137.5 M273,137.4C273,137.4,273,137.4,273,137.4C273,137.4,273,137.4,273,137.4 M273,137.3
		C273,137.3,273,137.3,273,137.3C273,137.3,273,137.3,273,137.3 M273,137.1C273,137.2,273,137.2,273,137.1
		C273,137.2,273,137.2,273,137.1 M273,137C273,137,273,137,273,137C273,137,273,137,273,137 M273,136.9
		C273,136.9,273,136.9,273,136.9C273,136.9,273,136.9,273,136.9 M273,136.8C273,136.8,273,136.8,273,136.8
		C273,136.8,273,136.8,273,136.8 M273,136.7C273,136.7,273,136.7,273,136.7C273,136.7,273,136.7,273,136.7 M273,136.6L273,136.6
		C273,136.6,273,136.6,273,136.6 M273,136.5C273,136.5,273,136.5,273,136.5C273,136.5,273,136.5,273,136.5 M273,136.4L273,136.4
		L273,136.4 M273,135.9c0,0,0,0.1,0,0.1C273,136,273,136,273,135.9 M273,135.8c0,0,0,0.1,0,0.1C273,135.9,273,135.8,273,135.8
		 M273,135.5C273,135.5,273,135.5,273,135.5C273,135.5,273,135.5,273,135.5 M273,135.2c0,0.1,0,0.2,0,0.3
		C273,135.4,273,135.3,273,135.2 M273,133.5c0,0.5,0,1.1,0,1.6C273,134.6,273,134,273,133.5 M273,133.4
		C273,133.5,273,133.5,273,133.4C273,133.5,273,133.5,273,133.4 M273,133.4C273,133.4,273,133.4,273,133.4
		C273,133.4,273,133.4,273,133.4 M273,133.3C273,133.3,273,133.4,273,133.3C273,133.4,273,133.3,273,133.3 M273,133.2L273,133.2
		L273,133.2 M273,133.1L273,133.1L273,133.1 M273,133.1C273,133.1,273,133.1,273,133.1C273,133.1,273,133.1,273,133.1 M273,133
		C273,133,273,133,273,133C273,133,273,133,273,133 M273,132.9C273,133,273,133,273,132.9C273,133,273,133,273,132.9 M273,132.9
		C273,132.9,273,132.9,273,132.9C273,132.9,273,132.9,273,132.9 M273,132.8C273,132.8,273,132.9,273,132.8
		C273,132.9,273,132.8,273,132.8 M273,132.8C273,132.8,273,132.8,273,132.8C273,132.8,273,132.8,273,132.8 M273,132.7
		C273,132.7,273,132.8,273,132.7C273,132.8,273,132.7,273,132.7 M273,132.7C273,132.7,273,132.7,273,132.7
		C273,132.7,273,132.7,273,132.7 M273,132.6C273,132.6,273,132.7,273,132.6C273,132.7,273,132.6,273,132.6 M272.9,132.6
		C273,132.6,273,132.6,272.9,132.6C273,132.6,273,132.6,272.9,132.6 M272.9,132.5C272.9,132.5,272.9,132.5,272.9,132.5
		C272.9,132.5,272.9,132.5,272.9,132.5 M272.9,132.2c0,0.1,0,0.2,0,0.3C272.9,132.4,272.9,132.3,272.9,132.2 M272.9,132.2
		C272.9,132.2,272.9,132.2,272.9,132.2C272.9,132.2,272.9,132.2,272.9,132.2 M272.9,131.9c0,0.1,0,0.2,0,0.3
		C272.9,132.1,272.9,132,272.9,131.9 M272.9,131.8C272.9,131.8,272.9,131.8,272.9,131.8C272.9,131.8,272.9,131.8,272.9,131.8
		 M272.9,131.7C272.9,131.8,272.9,131.8,272.9,131.7C272.9,131.8,272.9,131.8,272.9,131.7 M272.9,130.2c0,0.5,0,1,0.1,1.5
		C272.9,131.2,272.9,130.7,272.9,130.2 M272.7,127.4c0.1,0.9,0.1,1.9,0.2,2.8C272.8,129.3,272.8,128.3,272.7,127.4 M272.7,126.6
		c0,0.3,0,0.5,0.1,0.8C272.7,127.1,272.7,126.9,272.7,126.6 M272.6,126.1c0,0.2,0,0.3,0,0.5C272.6,126.5,272.6,126.3,272.6,126.1
		 M272.6,125.9c0,0.1,0,0.1,0,0.2C272.6,126.1,272.6,126,272.6,125.9 M272.5,124c0.1,0.6,0.1,1.3,0.2,1.9
		C272.6,125.3,272.5,124.7,272.5,124 M272.4,123.7c0,0.1,0,0.3,0,0.4C272.4,123.9,272.4,123.8,272.4,123.7 M272.4,123.5
		c0,0,0,0.1,0,0.1C272.4,123.6,272.4,123.6,272.4,123.5 M272.4,123.5C272.4,123.5,272.4,123.5,272.4,123.5
		C272.4,123.5,272.4,123.5,272.4,123.5 M272.4,123.4C272.4,123.4,272.4,123.5,272.4,123.4C272.4,123.5,272.4,123.4,272.4,123.4
		 M272.3,122.7c0,0.2,0,0.5,0.1,0.7C272.4,123.2,272.4,122.9,272.3,122.7 M272.3,122.4c0,0.1,0,0.2,0,0.3
		C272.3,122.6,272.3,122.5,272.3,122.4 M272.3,122.4C272.3,122.4,272.3,122.4,272.3,122.4C272.3,122.4,272.3,122.4,272.3,122.4
		 M272.3,122.3C272.3,122.3,272.3,122.3,272.3,122.3C272.3,122.3,272.3,122.3,272.3,122.3 M272.3,122.3
		C272.3,122.3,272.3,122.3,272.3,122.3C272.3,122.3,272.3,122.3,272.3,122.3 M272.3,122.2C272.3,122.2,272.3,122.2,272.3,122.2
		C272.3,122.2,272.3,122.2,272.3,122.2 M272.3,122.2C272.3,122.2,272.3,122.2,272.3,122.2C272.3,122.2,272.3,122.2,272.3,122.2
		 M272.3,122.1C272.3,122.1,272.3,122.1,272.3,122.1C272.3,122.1,272.3,122.1,272.3,122.1 M272.3,122
		C272.3,122.1,272.3,122.1,272.3,122C272.3,122.1,272.3,122.1,272.3,122 M272.3,122C272.3,122,272.3,122,272.3,122
		C272.3,122,272.3,122,272.3,122 M272.2,121.9c0,0,0,0.1,0,0.1C272.3,122,272.2,121.9,272.2,121.9 M272.2,121.8c0,0,0,0.1,0,0.1
		C272.2,121.8,272.2,121.8,272.2,121.8 M272.2,121.7C272.2,121.7,272.2,121.8,272.2,121.7C272.2,121.8,272.2,121.7,272.2,121.7
		 M272.2,121.7C272.2,121.7,272.2,121.7,272.2,121.7C272.2,121.7,272.2,121.7,272.2,121.7 M272.2,121.6
		C272.2,121.6,272.2,121.6,272.2,121.6C272.2,121.6,272.2,121.6,272.2,121.6 M272.2,121.6C272.2,121.6,272.2,121.6,272.2,121.6
		C272.2,121.6,272.2,121.6,272.2,121.6 M272.2,121.5C272.2,121.5,272.2,121.5,272.2,121.5C272.2,121.5,272.2,121.5,272.2,121.5
		 M272.2,121.5C272.2,121.5,272.2,121.5,272.2,121.5C272.2,121.5,272.2,121.5,272.2,121.5 M272.2,121.4
		C272.2,121.4,272.2,121.4,272.2,121.4C272.2,121.4,272.2,121.4,272.2,121.4 M272.2,121.3C272.2,121.4,272.2,121.4,272.2,121.3
		C272.2,121.4,272.2,121.4,272.2,121.3 M272.2,121.1c0,0.1,0,0.2,0,0.3C272.2,121.3,272.2,121.2,272.2,121.1 M272.2,121
		C272.2,121,272.2,121.1,272.2,121C272.2,121.1,272.2,121,272.2,121 M272.1,121C272.1,121,272.1,121,272.1,121
		C272.2,121,272.1,121,272.1,121 M272.1,120.9C272.1,120.9,272.1,120.9,272.1,120.9C272.1,121,272.1,120.9,272.1,120.9 M272.1,120.9
		C272.1,120.9,272.1,120.9,272.1,120.9C272.1,120.9,272.1,120.9,272.1,120.9 M272.1,120.8C272.1,120.8,272.1,120.8,272.1,120.8
		C272.1,120.8,272.1,120.8,272.1,120.8 M272.1,120.8C272.1,120.8,272.1,120.8,272.1,120.8C272.1,120.8,272.1,120.8,272.1,120.8
		 M272.1,120.7C272.1,120.7,272.1,120.7,272.1,120.7C272.1,120.7,272.1,120.7,272.1,120.7 M272.1,120.7
		C272.1,120.7,272.1,120.7,272.1,120.7C272.1,120.7,272.1,120.7,272.1,120.7 M272.1,120.6C272.1,120.6,272.1,120.6,272.1,120.6
		C272.1,120.6,272.1,120.6,272.1,120.6 M272.1,120.5C272.1,120.6,272.1,120.6,272.1,120.5C272.1,120.6,272.1,120.6,272.1,120.5
		 M272.1,120.5C272.1,120.5,272.1,120.5,272.1,120.5C272.1,120.5,272.1,120.5,272.1,120.5 M272.1,120.4
		C272.1,120.5,272.1,120.5,272.1,120.4C272.1,120.5,272.1,120.5,272.1,120.4 M272.1,120.4C272.1,120.4,272.1,120.4,272.1,120.4
		C272.1,120.4,272.1,120.4,272.1,120.4 M272.1,120.3C272.1,120.3,272.1,120.4,272.1,120.3C272.1,120.4,272.1,120.3,272.1,120.3
		 M272.1,120.3C272.1,120.3,272.1,120.3,272.1,120.3C272.1,120.3,272.1,120.3,272.1,120.3 M272.1,120.2
		C272.1,120.2,272.1,120.3,272.1,120.2C272.1,120.3,272.1,120.2,272.1,120.2 M272.1,120.2C272.1,120.2,272.1,120.2,272.1,120.2
		C272.1,120.2,272.1,120.2,272.1,120.2 M272,120.1C272,120.1,272.1,120.1,272,120.1C272.1,120.1,272,120.1,272,120.1 M272,120.1
		C272,120.1,272,120.1,272,120.1C272,120.1,272,120.1,272,120.1 M272,120C272,120,272,120,272,120C272,120,272,120,272,120 M272,120
		C272,120,272,120,272,120C272,120,272,120,272,120 M272,119.9C272,119.9,272,119.9,272,119.9C272,119.9,272,119.9,272,119.9
		 M272,119.9C272,119.9,272,119.9,272,119.9C272,119.9,272,119.9,272,119.9 M272,119.8C272,119.8,272,119.8,272,119.8
		C272,119.8,272,119.8,272,119.8 M272,119.7C272,119.8,272,119.8,272,119.7C272,119.8,272,119.8,272,119.7 M272,119.7
		C272,119.7,272,119.7,272,119.7C272,119.7,272,119.7,272,119.7 M272,119.6C272,119.6,272,119.7,272,119.6
		C272,119.7,272,119.6,272,119.6 M272,119.6C272,119.6,272,119.6,272,119.6C272,119.6,272,119.6,272,119.6 M272,119.5
		C272,119.5,272,119.6,272,119.5C272,119.6,272,119.5,272,119.5 M272,119.5C272,119.5,272,119.5,272,119.5
		C272,119.5,272,119.5,272,119.5 M272,119.4C272,119.4,272,119.4,272,119.4C272,119.4,272,119.4,272,119.4 M272,119.4
		C272,119.4,272,119.4,272,119.4C272,119.4,272,119.4,272,119.4 M272,119.3C272,119.3,272,119.3,272,119.3
		C272,119.3,272,119.3,272,119.3 M271.9,119.3C271.9,119.3,271.9,119.3,271.9,119.3C271.9,119.3,271.9,119.3,271.9,119.3
		 M271.9,119.2C271.9,119.2,271.9,119.2,271.9,119.2C271.9,119.2,271.9,119.2,271.9,119.2 M271.9,119.2
		C271.9,119.2,271.9,119.2,271.9,119.2C271.9,119.2,271.9,119.2,271.9,119.2 M271.9,119.1C271.9,119.1,271.9,119.1,271.9,119.1
		C271.9,119.1,271.9,119.1,271.9,119.1 M271.9,119.1C271.9,119.1,271.9,119.1,271.9,119.1C271.9,119.1,271.9,119.1,271.9,119.1
		 M271.9,119C271.9,119,271.9,119,271.9,119C271.9,119,271.9,119,271.9,119 M271.9,118.9C271.9,119,271.9,119,271.9,118.9
		C271.9,119,271.9,119,271.9,118.9 M271.9,118.9C271.9,118.9,271.9,118.9,271.9,118.9C271.9,118.9,271.9,118.9,271.9,118.9
		 M271.9,118.8C271.9,118.9,271.9,118.9,271.9,118.8C271.9,118.9,271.9,118.8,271.9,118.8 M271.9,118.8
		C271.9,118.8,271.9,118.8,271.9,118.8C271.9,118.8,271.9,118.8,271.9,118.8 M271.9,118.7C271.9,118.7,271.9,118.8,271.9,118.7
		C271.9,118.8,271.9,118.7,271.9,118.7 M271.9,118.7C271.9,118.7,271.9,118.7,271.9,118.7C271.9,118.7,271.9,118.7,271.9,118.7
		 M271.9,118.6C271.9,118.6,271.9,118.6,271.9,118.6C271.9,118.6,271.9,118.6,271.9,118.6 M271.9,118.6
		C271.9,118.6,271.9,118.6,271.9,118.6C271.9,118.6,271.9,118.6,271.9,118.6 M271.8,118.5C271.9,118.5,271.9,118.5,271.8,118.5
		C271.9,118.5,271.9,118.5,271.8,118.5 M271.8,118.5C271.8,118.5,271.8,118.5,271.8,118.5C271.8,118.5,271.8,118.5,271.8,118.5
		 M271.8,118.4C271.8,118.4,271.8,118.4,271.8,118.4C271.8,118.4,271.8,118.4,271.8,118.4 M271.8,118.4
		C271.8,118.4,271.8,118.4,271.8,118.4C271.8,118.4,271.8,118.4,271.8,118.4 M271.8,118.3C271.8,118.3,271.8,118.3,271.8,118.3
		C271.8,118.3,271.8,118.3,271.8,118.3 M271.8,118.3C271.8,118.3,271.8,118.3,271.8,118.3C271.8,118.3,271.8,118.3,271.8,118.3
		 M271.8,118.2C271.8,118.2,271.8,118.2,271.8,118.2C271.8,118.2,271.8,118.2,271.8,118.2 M271.8,118.1
		C271.8,118.2,271.8,118.2,271.8,118.1C271.8,118.2,271.8,118.2,271.8,118.1 M271.8,118.1C271.8,118.1,271.8,118.1,271.8,118.1
		C271.8,118.1,271.8,118.1,271.8,118.1 M271.8,118C271.8,118,271.8,118.1,271.8,118C271.8,118.1,271.8,118,271.8,118 M271.8,118
		C271.8,118,271.8,118,271.8,118C271.8,118,271.8,118,271.8,118 M271.8,117.9C271.8,117.9,271.8,117.9,271.8,117.9
		C271.8,117.9,271.8,117.9,271.8,117.9 M271.8,117.9C271.8,117.9,271.8,117.9,271.8,117.9C271.8,117.9,271.8,117.9,271.8,117.9
		 M271.8,117.8C271.8,117.8,271.8,117.8,271.8,117.8C271.8,117.8,271.8,117.8,271.8,117.8 M271.7,117.8
		C271.8,117.8,271.8,117.8,271.7,117.8C271.8,117.8,271.8,117.8,271.7,117.8 M271.7,117.7C271.7,117.7,271.7,117.7,271.7,117.7
		C271.7,117.7,271.7,117.7,271.7,117.7 M271.7,117.7C271.7,117.7,271.7,117.7,271.7,117.7C271.7,117.7,271.7,117.7,271.7,117.7
		 M271.7,117.6C271.7,117.6,271.7,117.6,271.7,117.6C271.7,117.6,271.7,117.6,271.7,117.6 M271.7,117.6
		C271.7,117.6,271.7,117.6,271.7,117.6C271.7,117.6,271.7,117.6,271.7,117.6 M271.7,117.5C271.7,117.5,271.7,117.5,271.7,117.5
		C271.7,117.5,271.7,117.5,271.7,117.5 M271.7,117.5C271.7,117.5,271.7,117.5,271.7,117.5C271.7,117.5,271.7,117.5,271.7,117.5
		 M271.7,117.4C271.7,117.4,271.7,117.4,271.7,117.4C271.7,117.4,271.7,117.4,271.7,117.4 M271.7,117.4
		C271.7,117.4,271.7,117.4,271.7,117.4C271.7,117.4,271.7,117.4,271.7,117.4 M271.7,117.3C271.7,117.3,271.7,117.3,271.7,117.3
		C271.7,117.3,271.7,117.3,271.7,117.3 M271.7,117.2C271.7,117.3,271.7,117.3,271.7,117.2C271.7,117.3,271.7,117.2,271.7,117.2
		 M271.7,117.2C271.7,117.2,271.7,117.2,271.7,117.2C271.7,117.2,271.7,117.2,271.7,117.2 M271.7,117.1
		C271.7,117.1,271.7,117.1,271.7,117.1C271.7,117.1,271.7,117.1,271.7,117.1 M271.7,117.1C271.7,117.1,271.7,117.1,271.7,117.1
		C271.7,117.1,271.7,117.1,271.7,117.1 M271.6,117C271.6,117,271.6,117,271.6,117C271.6,117,271.6,117,271.6,117 M271.6,117
		C271.6,117,271.6,117,271.6,117C271.6,117,271.6,117,271.6,117 M271.6,116.9C271.6,116.9,271.6,116.9,271.6,116.9
		C271.6,116.9,271.6,116.9,271.6,116.9 M271.6,116.9C271.6,116.9,271.6,116.9,271.6,116.9C271.6,116.9,271.6,116.9,271.6,116.9
		 M271.6,116.8C271.6,116.8,271.6,116.8,271.6,116.8C271.6,116.8,271.6,116.8,271.6,116.8 M271.6,116.8
		C271.6,116.8,271.6,116.8,271.6,116.8C271.6,116.8,271.6,116.8,271.6,116.8 M271.6,116.7C271.6,116.7,271.6,116.7,271.6,116.7
		C271.6,116.7,271.6,116.7,271.6,116.7 M271.6,116.7C271.6,116.7,271.6,116.7,271.6,116.7L271.6,116.7 M271.6,116.6
		C271.6,116.6,271.6,116.6,271.6,116.6L271.6,116.6 M271.6,116.6C271.6,116.6,271.6,116.6,271.6,116.6
		C271.6,116.6,271.6,116.6,271.6,116.6 M271.6,116.5C271.6,116.5,271.6,116.5,271.6,116.5C271.6,116.5,271.6,116.5,271.6,116.5
		 M271.6,116.5C271.6,116.5,271.6,116.5,271.6,116.5L271.6,116.5 M271.5,116.2C271.5,116.2,271.5,116.2,271.5,116.2L271.5,116.2"/>
	<path fill="#CECECD" d="M219.9,203.7c-2.7,0-5-2.2-5-5s2.2-5,5-5c2.7,0,5,2.2,5,5S222.6,203.7,219.9,203.7 M244.8,174.6
		c-2.7,0-5-2.2-5-5c0-2.7,2.2-5,5-5c2.7,0,5,2.2,5,5C249.8,172.4,247.6,174.6,244.8,174.6 M196.5,174.6c-2.7,0-5-2.2-5-5s2.2-5,5-5
		c2.7,0,5,2.2,5,5S199.2,174.6,196.5,174.6 M224.8,158.7c-2.7,0-5-2.2-5-5c0-2.7,2.2-5,5-5c2.7,0,5,2.2,5,5
		C229.8,156.5,227.6,158.7,224.8,158.7 M251.1,135.3c-2.7,0-5-2.2-5-5s2.2-5,5-5c2.7,0,5,2.2,5,5S253.9,135.3,251.1,135.3
		 M219.9,133.5c-2.7,0-5-2.2-5-5c0-2.7,2.2-5,5-5c2.7,0,5,2.2,5,5C224.8,131.3,222.6,133.5,219.9,133.5 M191.5,109.4
		c-2.7,0-5-2.2-5-5c0-2.7,2.2-5,5-5c2.7,0,5,2.2,5,5C196.5,107.2,194.3,109.4,191.5,109.4 M163,104.4c-2.7,0-5-2.2-5-5
		c0-2.7,2.2-5,5-5c2.7,0,5,2.2,5,5C168,102.2,165.7,104.4,163,104.4 M229.8,99.5c-2.7,0-5-2.2-5-5s2.2-5,5-5c2.7,0,5,2.2,5,5
		S232.5,99.5,229.8,99.5 M208.4,77.2c-2.7,0-5-2.2-5-5c0-2.7,2.2-5,5-5c2.7,0,5,2.2,5,5C213.3,74.9,211.1,77.2,208.4,77.2
		 M171.2,75.3c-2.7,0-5-2.2-5-5c0-2.7,2.2-5,5-5c2.7,0,5,2.2,5,5C176.2,73.1,173.9,75.3,171.2,75.3 M172.9,51.2c-2.7,0-5-2.2-5-5
		c0-2.7,2.2-5,5-5c2.7,0,5,2.2,5,5C177.9,49,175.7,51.2,172.9,51.2 M203.4,40.8c-2.7,0-5-2.2-5-5c0-2.7,2.2-5,5-5c2.7,0,5,2.2,5,5
		C208.4,38.6,206.1,40.8,203.4,40.8 M145,26c-2.7,0-5-2.2-5-5c0-2.7,2.2-5,5-5c2.7,0,5,2.2,5,5C150,23.7,147.7,26,145,26 M136.6,0
		v52.6c0.7-0.4,1.6-0.7,2.5-0.7c2.7,0,5,2.2,5,5s-2.2,5-5,5c-0.9,0-1.8-0.2-2.5-0.7v57.5h36.6l24,29.7h-12.7v58.8
		c19.1,5,36.2,12.8,50.3,22.8h0.8c22.7-23.9,36.8-56,37.4-91.3v0c0,0,0-0.1,0-0.1v0c0,0,0-0.1,0-0.1v0c0,0,0-0.1,0-0.1c0,0,0,0,0,0
		c0,0,0-0.1,0-0.1v0c0,0,0-0.1,0-0.1v0c0,0,0-0.1,0-0.1v0c0,0,0-0.1,0-0.1c0,0,0,0,0,0c0-0.1,0-0.1,0-0.2v0c0,0,0-0.1,0-0.1
		c0,0,0,0,0,0c0,0,0-0.1,0-0.1c0,0,0,0,0,0c0,0,0-0.1,0-0.1v0c0,0,0-0.1,0-0.1c0,0,0,0,0,0c0,0,0-0.1,0-0.1c0,0,0,0,0,0
		c0,0,0-0.1,0-0.1c0,0,0,0,0,0c0,0,0-0.1,0-0.1c0,0,0,0,0,0c0,0,0-0.1,0-0.1c0,0,0,0,0,0c0,0,0-0.1,0-0.1c0,0,0,0,0,0
		c0,0,0-0.1,0-0.1c0,0,0,0,0,0c0,0,0-0.1,0-0.1v0c0,0,0-0.1,0-0.1c0,0,0,0,0,0c0,0,0-0.1,0-0.1v0c0,0,0-0.1,0-0.1l0,0
		c0-0.1,0-0.2,0-0.2c0,0,0-0.1,0-0.1c0,0,0,0,0,0c0,0,0-0.1,0-0.1c0-0.1,0-0.2,0-0.3c0,0,0,0,0,0c0,0,0,0,0,0c0-0.1,0-0.2,0-0.3
		c0,0,0-0.1,0-0.1c0-0.5,0-1.1,0-1.6c0,0,0,0,0,0c0,0,0,0,0,0c0,0,0,0,0,0c0,0,0,0,0,0c0,0,0,0,0,0c0,0,0,0,0,0c0,0,0-0.1,0-0.1v0
		c0,0,0-0.1,0-0.1v0c0,0,0,0,0,0c0,0,0,0,0,0c0,0,0,0,0,0c0,0,0,0,0,0c0,0,0,0,0,0c0,0,0,0,0,0v0c0,0,0,0,0,0c0,0,0,0,0,0
		c0,0,0,0,0,0c0,0,0,0,0,0c0,0,0,0,0,0c0,0,0,0,0,0c0,0,0,0,0,0c0,0,0,0,0,0c0,0,0,0,0,0c0,0,0,0,0,0c0,0,0,0,0,0v0c0,0,0,0,0,0v0
		c0,0,0,0,0,0v0c0-0.1,0-0.2,0-0.3l0,0c0,0,0,0,0-0.1l0,0c0-0.1,0-0.2,0-0.3v0c0,0,0,0,0,0c0,0,0,0,0,0c0,0,0,0,0,0l0,0
		c0-0.5,0-1-0.1-1.5v0c0-0.9-0.1-1.9-0.2-2.8l0,0c0-0.3,0-0.5-0.1-0.8c0,0,0,0,0,0c0-0.2,0-0.3,0-0.5l0,0c0-0.1,0-0.1,0-0.2l0,0
		c0-0.6-0.1-1.3-0.2-1.9v0c0-0.1,0-0.3,0-0.4l0,0c0,0,0-0.1,0-0.1c0,0,0,0,0,0c0,0,0,0,0,0c0,0,0,0,0,0c0,0,0-0.1,0-0.1l0,0
		c0-0.2,0-0.5-0.1-0.7v0c0-0.1,0-0.2,0-0.3v0c0,0,0,0,0-0.1c0,0,0,0,0,0c0,0,0,0,0,0c0,0,0,0,0,0c0,0,0,0,0,0c0,0,0,0,0,0
		c0,0,0,0,0,0c0,0,0,0,0,0c0,0,0,0,0,0c0,0,0,0,0,0c0,0,0,0,0-0.1c0,0,0,0,0,0c0,0,0,0,0,0c0,0,0,0,0,0c0,0,0,0,0,0l0,0
		c0,0,0-0.1,0-0.1c0,0,0,0,0,0c0,0,0-0.1,0-0.1c0,0,0,0,0,0c0,0,0,0,0,0c0,0,0,0,0,0c0,0,0,0,0,0c0,0,0,0,0,0c0,0,0,0,0,0
		c0,0,0,0,0,0c0,0,0,0,0,0c0,0,0,0,0,0c0,0,0,0,0,0c0,0,0,0,0,0c0,0,0,0,0,0c0,0,0,0,0,0c0,0,0,0,0,0c0,0,0,0,0,0c0,0,0,0,0,0
		c0,0,0,0,0,0c0-0.1,0-0.2,0-0.3v0c0,0,0,0,0-0.1c0,0,0,0,0,0c0,0,0,0,0,0c0,0,0,0,0,0c0,0,0,0,0,0c0,0,0,0,0,0c0,0,0,0,0,0
		c0,0,0,0,0,0c0,0,0,0,0,0c0,0,0,0,0,0c0,0,0,0,0,0c0,0,0,0,0,0c0,0,0,0,0,0c0,0,0,0,0,0c0,0,0,0,0,0c0,0,0,0,0,0c0,0,0,0,0,0
		c0,0,0,0,0,0c0,0,0,0,0,0c0,0,0,0,0,0c0,0,0,0,0,0c0,0,0,0,0,0c0,0,0,0,0,0c0,0,0,0,0,0c0,0,0,0,0,0c0,0,0,0,0,0c0,0,0,0,0,0
		c0,0,0,0,0,0c0,0,0,0,0,0c0,0,0,0,0,0c0,0,0,0,0,0c0,0,0,0,0,0c0,0,0,0,0,0c0,0,0,0,0,0c0,0,0,0,0,0c0,0,0,0,0,0c0,0,0,0,0,0
		c0,0,0,0,0,0c0,0,0,0,0,0c0,0,0,0,0,0c0,0,0,0,0,0c0,0,0,0,0,0c0,0,0,0,0,0c0,0,0,0,0,0c0,0,0,0,0,0c0,0,0,0,0,0c0,0,0,0,0,0
		c0,0,0,0,0,0s0,0,0,0c0,0,0,0,0,0c0,0,0,0,0,0c0,0,0,0,0,0c0,0,0,0,0,0c0,0,0,0,0,0s0,0,0,0c0,0,0,0,0,0c0,0,0,0,0,0c0,0,0,0,0,0
		s0,0,0,0c0,0,0,0,0,0c0,0,0,0,0,0c0,0,0,0,0,0c0,0,0,0,0,0c0,0,0,0,0,0c0,0,0,0,0,0c0,0,0,0,0,0c0,0,0,0,0,0c0,0,0,0,0,0
		c0,0,0,0,0,0c0,0,0,0,0,0c0,0,0,0,0,0c0,0,0,0,0,0c0,0,0,0,0,0c0,0,0,0,0,0c0,0,0,0,0,0c0,0,0,0,0,0c0,0,0,0,0,0c0,0,0,0,0,0
		c0,0,0,0,0,0c0,0,0,0,0,0c0,0,0,0,0,0c0,0,0,0,0,0c0,0,0,0,0,0c0,0,0,0,0,0c0,0,0,0,0,0c0,0,0,0,0,0c0,0,0,0,0,0c0,0,0,0,0,0
		c0,0,0,0,0,0s0,0,0,0c0,0,0,0,0,0c0,0,0,0,0,0c0,0,0,0,0,0c0,0,0,0,0,0c0,0,0,0,0,0c0,0,0,0,0,0c0,0,0,0,0,0c0,0,0,0,0,0s0,0,0,0
		s0,0,0,0s0,0,0,0c0,0,0,0,0,0c0,0,0,0,0,0c0,0,0,0,0,0c0,0,0,0,0,0c0,0,0,0,0,0c0,0,0,0,0,0c0,0,0,0,0,0c0,0,0,0,0,0c0,0,0,0,0,0
		s0,0,0,0c0,0,0,0,0,0c0,0,0,0,0,0c0,0,0,0,0,0c0,0,0,0,0,0s0,0,0,0c0,0,0,0,0,0c0,0,0,0,0,0c0,0,0,0,0,0c0,0,0,0,0,0c0,0,0,0,0,0
		c0,0,0,0,0,0s0,0,0,0c0,0,0,0,0,0c0,0,0,0,0,0c0,0,0,0,0,0c0,0,0,0,0,0c0,0,0,0,0,0c0,0,0,0,0,0c0,0,0,0,0,0c0,0,0,0,0,0
		c0,0,0,0,0,0c0,0,0,0,0,0c0,0,0,0,0,0c0,0,0,0,0,0c0,0,0,0,0,0c0,0,0,0,0,0c0,0,0,0,0,0c0,0,0,0,0,0c0,0,0,0,0,0c0,0,0,0,0,0
		c0,0,0,0,0,0c0,0,0,0,0,0c0,0,0,0,0,0c0,0,0,0,0,0c0,0,0,0,0,0c0,0,0,0,0,0c0,0,0,0,0,0c0,0,0,0,0,0c0,0,0,0,0,0c0,0,0,0,0,0
		c0,0,0,0,0,0c0,0,0,0,0,0c0,0,0,0,0,0c0,0,0,0,0,0c0,0,0,0,0,0c0,0,0,0,0,0c0,0,0,0,0,0c0,0,0,0,0,0c0,0,0,0,0,0c0,0,0,0,0,0
		c0,0,0,0,0,0c0,0,0,0,0,0c0,0,0,0,0,0c0,0,0,0,0,0c0,0,0,0,0,0c0,0,0,0,0,0c0,0,0,0,0,0c0,0,0,0,0,0c0,0,0,0,0,0c0,0,0,0,0,0
		c0,0,0,0,0,0c0,0,0,0,0,0c0-0.1,0-0.2,0-0.3c0,0,0,0,0,0C261.8,50.5,205.1,0,136.6,0"/>
	<path fill="#C2922B" d="M184.5,207.2L184.5,207.2h-47.9v22.8h98.2C220.7,220.1,203.6,212.2,184.5,207.2"/>
	<path fill="#2B9CBB" d="M208.4,67.2c-2.7,0-5,2.2-5,5c0,2.7,2.2,5,5,5c2.7,0,5-2.2,5-5C213.3,69.5,211.1,67.2,208.4,67.2"/>
	<path fill="#9FA2A0" d="M171.2,65.4c-2.7,0-5,2.2-5,5c0,2.7,2.2,5,5,5c2.7,0,5-2.2,5-5C176.2,67.6,173.9,65.4,171.2,65.4"/>
	<path fill="#AD2A28" d="M172.9,41.3c-2.7,0-5,2.2-5,5c0,2.7,2.2,5,5,5c2.7,0,5-2.2,5-5C177.9,43.5,175.7,41.3,172.9,41.3"/>
	<path fill="#2B9CBB" d="M139.1,51.9c-0.9,0-1.8,0.2-2.5,0.7v8.6c0.7,0.4,1.6,0.7,2.5,0.7c2.7,0,5-2.2,5-5S141.8,51.9,139.1,51.9"/>
	<path fill="#C2922B" d="M203.4,30.9c-2.7,0-5,2.2-5,5c0,2.7,2.2,5,5,5c2.7,0,5-2.2,5-5C208.4,33.1,206.1,30.9,203.4,30.9"/>
	<path fill="#9FA2A0" d="M196.5,164.7c-2.7,0-5,2.2-5,5s2.2,5,5,5c2.7,0,5-2.2,5-5S199.2,164.7,196.5,164.7"/>
	<path fill="#AD2A28" d="M219.9,193.8c-2.7,0-5,2.2-5,5s2.2,5,5,5c2.7,0,5-2.2,5-5S222.6,193.8,219.9,193.8"/>
	<path fill="#2B9CBB" d="M251.1,125.4c-2.7,0-5,2.2-5,5s2.2,5,5,5c2.7,0,5-2.2,5-5S253.9,125.4,251.1,125.4"/>
	<path fill="#C2922B" d="M229.8,89.6c-2.7,0-5,2.2-5,5s2.2,5,5,5c2.7,0,5-2.2,5-5S232.5,89.6,229.8,89.6"/>
	<path fill="#C2922B" d="M224.8,148.8c-2.7,0-5,2.2-5,5c0,2.7,2.2,5,5,5c2.7,0,5-2.2,5-5C229.8,151,227.6,148.8,224.8,148.8"/>
	<path fill="#AD2A28" d="M219.9,123.6c-2.7,0-5,2.2-5,5c0,2.7,2.2,5,5,5c2.7,0,5-2.2,5-5C224.8,125.8,222.6,123.6,219.9,123.6"/>
	<path fill="#9FA2A0" d="M191.5,99.5c-2.7,0-5,2.2-5,5c0,2.7,2.2,5,5,5c2.7,0,5-2.2,5-5C196.5,101.7,194.3,99.5,191.5,99.5"/>
	<path fill="#9FA2A0" d="M244.8,164.7c-2.7,0-5,2.2-5,5c0,2.7,2.2,5,5,5c2.7,0,5-2.2,5-5C249.8,166.9,247.6,164.7,244.8,164.7"/>
	<path fill="#C2922B" d="M163,94.5c-2.7,0-5,2.2-5,5c0,2.7,2.2,5,5,5c2.7,0,5-2.2,5-5C168,96.7,165.7,94.5,163,94.5"/>
	<path fill="#9FA2A0" d="M145,16.1c-2.7,0-5,2.2-5,5c0,2.7,2.2,5,5,5c2.7,0,5-2.2,5-5C150,18.3,147.7,16.1,145,16.1"/>
	<polyline fill="#5D1713" points="184.5,148.4 174.7,148.4 174.7,207.2 166.1,207.2 166.1,148.4 155.7,148.4 155.7,207.2 
		147.1,207.2 147.1,148.4 136.6,148.4 136.6,207.2 184.5,207.2 184.5,148.4 	"/>
	<polyline fill="#5D1713" points="173.2,118.6 136.6,118.6 136.6,148.4 147.1,148.4 155.7,148.4 166.1,148.4 174.7,148.4 
		184.5,148.4 197.2,148.4 173.2,118.6 	"/>
	<polyline fill="#9FA2A0" points="174.7,148.4 166.1,148.4 166.1,207.2 174.7,207.2 174.7,148.4 	"/>
	<polyline fill="#9FA2A0" points="155.7,148.4 147.1,148.4 147.1,207.2 155.7,207.2 155.7,148.4 	"/>
	<rect x="136.5" y="284.8" fill="#1E1A1C" width="119.3" height="41.2"/>
	<rect x="13.3" y="284.8" fill="#55474D" width="123.3" height="41.2"/>
</g>
</svg>
