<?xml version="1.0" encoding="utf-8"?>
<!-- Generator: Adobe Illustrator 16.2.1, SVG Export Plug-In . SVG Version: 6.00 Build 0)  -->
<!DOCTYPE svg PUBLIC "-//W3C//DTD SVG 1.1//EN" "http://www.w3.org/Graphics/SVG/1.1/DTD/svg11.dtd">
<svg version="1.1" id="Layer_1" xmlns="http://www.w3.org/2000/svg" xmlns:xlink="http://www.w3.org/1999/xlink" x="0px" y="0px"
	 width="250px" height="396px" viewBox="0 0 250 396" enable-background="new 0 0 250 396" xml:space="preserve">
<g>
	<path fill="#D88921" d="M151.4,158.1l59.7-103.5c-13.6-18.1-35.3-29.9-59.7-29.9c-24.4,0-46.1,11.7-59.7,29.9L151.4,158.1z"/>
	<path fill="#BA6F15" d="M91.6,54.6l56.5,97.8h3.2V24.7C126.9,24.7,105.2,36.5,91.6,54.6z"/>
	<path opacity="0.67" fill="#FFFFFF" d="M129.5,312.6c59.8,0,108.3-48.5,108.3-108.3H21.2C21.2,264.2,69.7,312.6,129.5,312.6z"/>
	<path fill="#E0CED5" d="M215.7,143.5c0,11.7-9.5,21.1-21.1,21.1h-7.5c-11.7,0-21.1-9.5-21.1-21.1c0-11.7-24.6-21.1-13-21.1h41.6
		C206.2,122.4,215.7,131.8,215.7,143.5z"/>
	<path fill="#FFFFFF" d="M130.9,122.4c-46,0-38.7,31-83.8,31c-17.1,0-32.4,13.1-32.4,30.2c0,17.1,11.9,31,29.1,31
		c17.1,0,31-13.9,31-31c0-5.8-1.6-11.2-4.3-15.8h60.5C130.9,167.8,176.9,122.4,130.9,122.4z"/>
	<path fill="#F0A436" d="M237.7,204.3c-16.4,0-29.8-13.3-29.8-29.8c0,0-0.1-1-0.1-1.5c0-30.3-24.6-54.9-54.9-54.9
		c-30.3,0-54.9,24.6-54.9,54.9c0,30.3,24.6,54.9,54.9,54.9c17.2,0,21.4,23.9,31.5,11.5l53.3-31.7V204.3z"/>
	<path fill="#EF8729" d="M151.4,118.2c-30,0.3-54.2,24.8-54.2,54.9c0,13.9,5.2,26.7,13.8,36.4h40.5V118.2z"/>
	<path fill="#854E13" d="M105.5,231.2c0-29.7,24.1-53.7,53.7-53.7c29.7,0,53.7,24.1,53.7,53.7c0,29.7-24.1,53.7-53.7,53.7
		C129.6,284.9,105.5,260.8,105.5,231.2z"/>
	<path fill="#78C7C8" d="M51.3,89.2c-3.6-6.5-11.7-8.8-18.1-5.2c-6.5,3.6-8.8,11.7-5.2,18.1c0.3,0.6,0.7,1.1,1,1.6l42.9,63.1
		l11.1-6.1l-30.5-69C52.2,90.9,51.8,90,51.3,89.2z"/>
	<path fill="#48B488" d="M205.2,118.1c4.4-5.9,3.2-14.3-2.7-18.7c-5.9-4.4-14.3-3.2-18.7,2.7c-0.4,0.5-0.7,1-1,1.6L143,168.7
		l10.1,7.6l50.3-56.2C204.1,119.5,204.7,118.8,205.2,118.1z"/>
	<path fill="#E0CED5" d="M207.4,221.1c-22.2,0-47.7-14.2-56.6-19.5c-33.5-20.2-60.2-3.8-60.5-3.6l-17.5-27.6
		c1.8-1.1,44.3-27.3,94.8,3.2c17,10.3,45.3,17.5,45.3,17.5c-6.8-6.7-4.3-18.2-6.6-30.8c0,0,11.2-2.6,22.7,6.6
		c4.9,3.9,10.8,11.3,10.8,24.2c0,11.1-5.2,20.4-14.2,25.5C220.2,219.9,214,221.1,207.4,221.1z"/>
	<polygon fill="#854E13" points="84.8,154.4 87.4,149.1 93.2,146 96.1,149.1 97.1,155.7 	"/>
	<path fill="#FFFFFF" d="M240,190.6c-0.1-3.5-1.1-8.6-1.8-10.4c1.5,10.7-9.9,21.7-30.3,19.2c-7.1-0.5-21.2-4.5-38.2-14.8
		c-42.6-25.8-79.5-11.2-91.1-5.3L90.4,198c0.3-0.2,27-16.7,60.5,3.6c8.9,5.4,34.4,19.5,56.6,19.5c6.6,0,12.8-1.2,18.3-4.3
		c9-5.1,14.2-14.4,14.2-25.5C240,191.1,240,190.8,240,190.6z"/>
	<circle fill="#E83C74" cx="75.1" cy="204.3" r="54.9"/>
	<path fill="#EE7AA9" d="M76.3,149.5L76.3,149.5l0,109.8h0c30.3,0,54.9-24.6,54.9-54.9C131.2,174,106.6,149.5,76.3,149.5z"/>
	<path fill="#E83C74" d="M129.7,312.8c-30.7,0-58.4-12.8-78.1-33.3c35.2,10,61.4-17.8,107.4-33.7c38.8-13.4,56.5,2.9,64.6,12.6
		C204.9,291,169.8,312.8,129.7,312.8z"/>
	<path fill="#BA8145" d="M129.8,312.8c30.7,0,58.4-12.8,78.1-33.3c-35.2,10-58.7-17.8-104.7-33.7c-38.8-13.4-59.1,2.9-67.3,12.6
		C54.6,291,89.6,312.8,129.8,312.8z"/>
	<path fill="#462A13" d="M129.5,312.8c13.7,0,26.7-2.5,38.8-7.2c-7.1-2.9-15.4-6.1-25.2-9.8c-51.1-19.3-71.6-10.8-78.9-5
		C82.3,304.6,104.9,312.8,129.5,312.8z"/>
	<path fill="#FFFFFF" d="M212.8,190.9c0.4,0.1,0.9,0.1,1.4,0.1c5.2,0,9.4-4.2,9.4-9.4c0-5.2-4.2-9.4-9.4-9.4c-2.4,0-4.6,0.9-6.3,2.4
		C207.9,180.7,208.9,187.3,212.8,190.9z"/>
	<polygon fill="#854E13" points="53.2,171.7 41,178.9 45.6,184.5 50.3,184.5 	"/>
	<path fill="#462A13" d="M61.6,158.9c0,0-4-2-4.2-2.6c-0.2-0.6,5.7-7.3,5.9-7.9c0.2-0.6,6,4.2,6,4.2l-2.7,4.8L61.6,158.9z"/>
	<path fill="#462A13" d="M46.9,162c-0.8-1.3-7.1-3.9-7.1-3.9l-3.9,5.7l-2.4,6l10.3-3.3L46.9,162z"/>
	<polygon fill="#462A13" points="57.4,193.3 66.3,184.5 70.8,187.5 70.8,191 59,195.4 	"/>
	<path fill="#462A13" d="M87.5,163.8l-1.7,8.5l1.8,1.6c0,0,12.6-5.8,12.9-6.6c0.3-0.8-3.4-6.2-3.4-6.2L87.5,163.8z"/>
	<path fill="#462A13" d="M89,179.4c-0.8,0.3-3.2,5.1-3.2,5.1L89,190c0,0,5.8-2.5,5.8-3.3s3.9-4.4,2.4-5.1
		C95.5,181,89,179.4,89,179.4z"/>
	<path fill="#854E13" d="M27.7,197.9c0-1.2,1.3-6.9,1.3-6.9l5.8-1.1l3.2,4l-2.1,4H27.7z"/>
	<polygon fill="#854E13" points="102.1,199.1 106.8,192 112.4,192 113.4,195.6 110.5,199.1 	"/>
	<path fill="#854E13" d="M115,169.9c-1.1,0.5-4.5,6.2-4.5,6.2l4.5,4.4c0,0,3.7-2.2,3.7-3.2c0-0.9,0-7.5,0-7.5H115z"/>
	<path fill="#895317" d="M151.4,60.3c-17.9,0-33.8,8.1-44.5,20.8l8.2,14.3c7.6-12,21-20,36.2-20c15.3,0,28.6,8,36.2,20l8.2-14.3
		C185.2,68.4,169.2,60.3,151.4,60.3z"/>
	<polygon fill="#8A887A" points="131,345.2 114.1,345.2 114.1,376.9 53.1,396 131,396 	"/>
	<polygon fill="#C7C4B4" points="131,345.2 147.8,345.2 147.8,376.9 208.8,396 131,396 	"/>
	<circle fill="#8A887A" cx="131" cy="329" r="16.2"/>
	<path opacity="0.67" fill="#8A887A" d="M129.5,312.6c59.8,0,108.3-48.5,108.3-108.3H21.2C21.2,264.2,69.7,312.6,129.5,312.6z"/>
	<path opacity="0.67" fill="#C7C4B4" d="M131.2,312.8c59-0.9,106.5-48.4,106.5-108.5H131.2V312.8z"/>
	<path fill="#7E5B9F" d="M66,318.8l-0.6,0.9l-47-37.3c-0.5-0.5-1.1-1-1.7-1.4c-5-3.3-11.6-1.9-14.9,3.1c-3.3,5-1.9,11.6,3.1,14.9
		c0.4,0.3,0.9,0.5,1.3,0.7l53.5,28.6l-1,1.4c-2.4,3.7-1.4,8.7,2.2,11.1l25.1,14.4l14-21.1l-23-17.6C73.4,314.1,68.5,315.1,66,318.8z
		"/>
	<path fill="#71C3EA" d="M61.7,23.3l0.5,0.9L7.5,49c-0.7,0.2-1.3,0.5-2,0.9c-5.2,2.9-7,9.5-4.1,14.6c2.9,5.2,9.5,7,14.6,4.1
		c0.4-0.2,0.8-0.5,1.2-0.8l49.9-34.5l0.8,1.5c2.2,3.9,7,5.2,10.9,3.1l24.3-15.7L90.9,0L64.7,12.4C60.9,14.6,59.5,19.5,61.7,23.3z"/>
	<path fill="#E83C74" d="M195.4,302.5l0.8-0.7l33.5,49.9c0.3,0.6,0.7,1.2,1.2,1.8c3.7,4.6,10.5,5.3,15.1,1.6
		c4.6-3.7,5.3-10.5,1.6-15.1c-0.3-0.4-0.7-0.7-1-1.1l-42.3-43.5l1.3-1.1c3.5-2.8,4-7.8,1.2-11.3l-19.5-21.3l-19.7,15.8l16.6,23.7
		C186.9,304.8,191.9,305.3,195.4,302.5z"/>
	<path fill="#FFFFFF" d="M155,203.5c3.6,9.7,12.9,16.7,23.8,16.7c10.9,0,20.2-6.9,23.8-16.7H155z"/>
	<path fill="#FFFFFF" d="M201.8,203.5c1.3,3.6,4.8,6.2,8.9,6.2c4.1,0,7.6-2.6,8.9-6.2H201.8z"/>
	<path fill="#E83C74" d="M43.3,203.5c2.5,6.7,8.9,11.6,16.5,11.6c7.6,0,14-4.8,16.5-11.6H43.3z"/>
	<path fill="#E83C74" d="M21.4,203.5c2.5,6.7,8.9,11.6,16.5,11.6c7.6,0,14-4.8,16.5-11.6H21.4z"/>
</g>
</svg>
