<?xml version="1.0" encoding="utf-8"?>
<!-- Generator: Adobe Illustrator 16.2.1, SVG Export Plug-In . SVG Version: 6.00 Build 0)  -->
<!DOCTYPE svg PUBLIC "-//W3C//DTD SVG 1.1//EN" "http://www.w3.org/Graphics/SVG/1.1/DTD/svg11.dtd">
<svg version="1.1" id="Layer_1" xmlns="http://www.w3.org/2000/svg" xmlns:xlink="http://www.w3.org/1999/xlink" x="0px" y="0px"
	 width="239px" height="374px" viewBox="0 0 239 374" enable-background="new 0 0 239 374" xml:space="preserve">
<g>
	<rect y="257.8" fill="#DF0A14" width="123" height="116.2"/>
	<rect fill="#DF0A14" width="143.5" height="59"/>
	<rect x="143.5" fill="#8C1812" width="70.3" height="59"/>
	<polygon fill="#8C1812" points="206.5,0 206.5,228.3 123,228.3 123,257.8 123,374 239,374 239,0 	"/>
	<polygon fill="#E83E4B" points="143.5,228.3 20.5,228.3 0,257.8 123,257.8 	"/>
	<rect x="90.4" y="59" fill="#F0A436" width="116.2" height="169.2"/>
	<rect x="20.5" y="59" fill="#5F5B5B" width="123" height="19.9"/>
	<rect x="143.5" y="59" fill="#343232" width="63.1" height="19.9"/>
	<path fill="#2E2C2B" d="M79.9,243.2c-2,4.8-9.3,8.2-16.2,7.6c-6.9-0.6-10.9-4.9-8.9-9.7c2-4.8,9.3-8.2,16.2-7.6
		C77.9,234.1,81.9,238.4,79.9,243.2z"/>
	<path fill="#B76816" d="M106.9,238.3l-17.9,2.2v3.4h0c-0.1,2.6,2.5,4.7,6.5,5.1c4.8,0.4,9.7-2,11.1-5.2c0.3-0.6,0.4-1.2,0.4-1.8h0
		V238.3z"/>
	<path fill="#F0A436" d="M106.5,240c-1.4,3.3-6.4,5.6-11.1,5.2c-4.8-0.4-7.5-3.4-6.1-6.7c1.4-3.3,6.4-5.6,11.1-5.2
		C105.2,233.7,107.9,236.7,106.5,240z"/>
	<rect x="123.6" y="91.3" fill="#5F5B5B" width="9.9" height="20"/>
	<path fill="#626161" d="M113.8,127.1c-2.3,0-4.2,1.6-4.8,3.7c-3.8-1.8-6.5-5.7-6.5-10.2c0-6.2,5-11.3,11.3-11.3v-5.1
		c-9,0-16.4,7.3-16.4,16.4c0,9,7.3,16.4,16.4,16.4h0c2.7,0,4.9-2.2,4.9-4.9C118.8,129.3,116.6,127.1,113.8,127.1z"/>
	<path fill="#626161" d="M159.5,120.2c0-9-7.3-16.4-16-16.4v5.1c5.9,0,10.9,5,10.9,11.3c0,4.5-2.6,8.3-6.4,10.1
		c-0.6-2.1-2.5-3.6-4.7-3.6c-2.7,0-4.9,2.2-4.9,4.9c0,2.7,2.1,4.8,4.8,4.9v0l0.1,0l0.1,0l0.2,0C152.4,136.4,159.5,129.2,159.5,120.2
		z"/>
	<path fill="#626161" d="M130.8,127.6v-23.9h-4.6v23.9c-1.6,0.8-2.6,2.5-2.6,4.3c0,2.7,2.2,4.9,4.9,4.9c2.7,0,4.9-2.2,4.9-4.9
		C133.4,130,132.4,128.4,130.8,127.6z"/>
	<rect x="113.7" y="78.9" fill="#C6C8CA" width="29.8" height="12.4"/>
	<rect x="128.5" y="78.9" fill="#828485" width="15" height="12.4"/>
	<polygon fill="#343232" points="137.4,98.9 137.4,111.3 120.1,111.3 120.1,98.9 113.7,98.9 113.7,111.3 113.7,118.8 120.1,118.8 
		137.4,118.8 143.3,118.8 143.5,118.8 143.5,98.9 	"/>
	<rect x="82" y="268.5" fill="#2E2C2B" width="31" height="49.1"/>
	<polygon fill="#EA5818" points="95.5,286.4 87.8,286.4 90.7,274.6 98.4,274.6 	"/>
	<polygon fill="#B63818" points="98.4,286.4 95.5,286.4 98.4,274.6 	"/>
	<rect x="101.4" y="274.6" fill="#010202" width="2.9" height="11.8"/>
	<rect x="101.4" y="300.7" fill="#010202" width="7.2" height="11.8"/>
	<path fill="#EAC38C" d="M155.3,191.4c-0.4-17-14.2-30.6-31.3-30.6c-17,0-30.9,13.6-31.3,30.6h0v10.8h62.6L155.3,191.4L155.3,191.4z
		"/>
	<polygon fill="#4A4948" points="108.6,306.6 101.4,300.7 108.6,300.7 	"/>
	<rect x="184.1" y="152.7" fill="#ACADAC" width="22.3" height="45.7"/>
	<polygon fill="#FFFFFF" points="186.5,184.1 154,163.6 173.9,132.1 206.4,152.7 	"/>
	<rect x="128.1" y="205.4" fill="#D9317E" width="46.9" height="22.8"/>
	<path fill="#48B488" d="M147.1,198.5c0-16.4,13.3-29.7,29.6-29.7c16.4,0,29.6,13.2,29.6,29.6c0,16.4-13.3,29.9-29.6,29.9
		C160.4,228.3,147.1,214.9,147.1,198.5z"/>
	<path fill="#2D7B5A" d="M176.8,228.3c16.4,0,29.6-13.5,29.6-29.9l-59.3,0.1C147.1,214.9,160.4,228.3,176.8,228.3z"/>
	<rect x="31.7" y="268.5" fill="#E83E4B" width="50.3" height="49.1"/>
	<ellipse fill="#58B470" cx="149.4" cy="170.9" rx="18.9" ry="18.9"/>
	<path fill="#643923" d="M92.8,177.6c0-13.6-11-24.7-24.6-24.7c-0.3-3.7-3.4-6.5-7.1-6.5c-4,0-7.2,3.2-7.2,7.2c0,1,0.2,2,0.6,2.9
		c-1.3-1.4-3.2-2.3-5.2-2.3c-4,0-7.2,3.2-7.2,7.2c0,2.6,1.4,4.9,3.5,6.2l0,0c-0.6-0.1-1.2-0.2-1.8-0.2c-4,0-7.2,3.2-7.2,7.2
		c0,3.6,2.7,6.6,6.2,7.1c-1.5,1.3-2.4,3.2-2.4,5.4c0,4,3.2,7.2,7.2,7.2c0.7,0,1.3-0.1,1.9-0.3c-1.2,1.3-1.9,3-1.9,4.9
		c0,4,3.2,7.2,7.2,7.2c2.5,0,4.7-1.3,6-3.2c0.4,3.8,3.6,6.7,7.5,6.7c4.2,0,7.6-3.4,7.6-7.6c0-0.3,0-0.6,0-0.8
		C85.6,197.8,92.8,188.5,92.8,177.6z"/>
	<path fill="#4A2717" d="M100.4,174.5c0-4-3.2-7.2-7.2-7.2c-0.6,0-1.2,0.1-1.8,0.2c1.4-1.3,2.4-3.2,2.4-5.3c0-4-3.2-7.2-7.2-7.2
		c-1.9,0-3.6,0.7-4.9,1.9l-0.1-0.1c0.5-1,0.8-2.1,0.8-3.4c0-4-3.2-7.2-7.2-7.2c-3.7,0-6.8,2.9-7.1,6.5l0,0l0,0.6l0,0l0,0l0.1,55.9
		l0.1,0c3.9,0,7-2.9,7.5-6.7c1.3,1.6,3.3,2.7,5.6,2.7c4,0,7.2-3.2,7.2-7.2c0-1.3-0.4-2.6-1-3.6c0.9,0.4,1.8,0.6,2.9,0.6
		c4,0,7.2-3.2,7.2-7.2c0-2.8-1.7-5.3-4.1-6.5C97.4,181.5,100.4,178.3,100.4,174.5z"/>
	<ellipse fill="#FFFFFF" cx="42.4" cy="180.1" rx="22" ry="22"/>
	<path fill="#ACADAC" d="M64.3,180.1c0-12.1-9.8-22-22-22v44C54.5,202.1,64.3,192.2,64.3,180.1z"/>
	<rect x="90.3" y="204.1" fill="#E9473A" width="53.2" height="24.2"/>
	<rect x="20.5" y="182.6" fill="#F0A436" width="21.9" height="45.6"/>
	<rect x="42.4" y="182.6" fill="#B05917" width="25.7" height="45.6"/>
	<rect x="65.5" y="182.6" fill="#ACADAC" width="24.8" height="45.6"/>
	<path fill="#B37436" d="M155.3,202.2v-10.8h0c-0.4-17-14.2-30.6-31.3-30.6v41.3H155.3z"/>
	<path fill="#D9317E" d="M178.6,150.9c-6.9-3.2-15-0.2-18.2,6.7l-13.7,30c-2.8,7.8-10.2,13-18.5,13c-7.4,0-15.1-6.1-18.8-12.9
		c-8.6-13.2-23.3-21.3-39.3-21.3c-19.9,0-37.7,12.6-44.3,31.3l25.9,9.2c2.8-7.8,10.2-13,18.5-13c7.4,0,14.1,4.1,17.5,10.7l0,0
		c8.4,14.5,23.8,23.6,40.7,23.6c19.6,0,37.3-12.4,44.1-30.8l13-28.3C188.5,162.2,185.5,154.1,178.6,150.9z"/>
	<path fill="#563344" d="M172.2,197.6l13-28.3c3.2-6.9,0.2-15-6.7-18.2c-0.1-0.1-0.3-0.1-0.4-0.2l-22.3,50.3c0,0,2.8,14.5-26.9,14.5
		c-32,0-27.6-36.2-59.7-36.2c-25.7,0-30.9,22.7-31.3,22.8l13.5,4.8c2.8-7.8,10.2-13,18.5-13c7.4,0,14.1,4.1,17.5,10.7l0,0
		c8.4,14.5,23.8,23.4,40.7,23.4C147.8,228.3,165.4,216,172.2,197.6z"/>
	<ellipse fill="#B575B0" cx="143.5" cy="210.8" rx="17.4" ry="17.5"/>
	<path fill="#DF6A10" d="M161,210.8c0-9.6-7.8-17.5-17.4-17.5v34.9C153.2,228.3,161,220.5,161,210.8z"/>
	<ellipse fill="#5B60A8" cx="68.3" cy="206.2" rx="22.1" ry="22.1"/>
	<path fill="#293287" d="M46.2,206.2c0,12.2,9.9,22.1,22.1,22.1v-44.1C56.1,184.1,46.2,194,46.2,206.2z"/>
	<ellipse fill="#E94C58" cx="124" cy="151.9" rx="8.9" ry="8.9"/>
	<path fill="#D42C3F" d="M124,160.8c4.9,0,8.9-4,8.9-8.9h-17.7C115.2,156.8,119.1,160.8,124,160.8z"/>
	<ellipse fill="#D9317E" cx="43.9" cy="204.1" rx="19.3" ry="19.4"/>
	<circle fill="#AB5317" cx="106.1" cy="168.8" r="3.6"/>
	<circle fill="#AB5317" cx="117.7" cy="181.5" r="3.6"/>
	<circle fill="#AB5317" cx="130.3" cy="181.5" r="3.6"/>
	<circle fill="#AB5317" cx="142.4" cy="168.8" r="3.6"/>
	<path fill="#ACADAC" d="M55.6,165.2c0,3.6-3,1-6.6,1c-3.6,0-6.6-3-6.6-6.6v-26.4c0-3.6,3-6.6,6.6-6.6c3.6,0,6.6,3,6.6,6.6V165.2z"
		/>
	<path fill="#FFFFFF" d="M39.6,165.2c0,3.6-3,1-6.6,1c-3.6,0-6.6,7.9-6.6,4.2v-37.2c0-3.6,3-6.6,6.6-6.6c3.6,0,6.6,3,6.6,6.6V165.2z
		"/>
	<rect x="42.4" y="204.1" fill="#D9317E" width="20.8" height="19.3"/>
	<circle fill="#2E2C2B" cx="36.6" cy="201.3" r="3"/>
	<circle fill="#2E2C2B" cx="58.2" cy="201.3" r="3"/>
	<circle fill="#2E2C2B" cx="136.8" cy="204.1" r="3"/>
	<circle fill="#2E2C2B" cx="150.1" cy="204.1" r="3"/>
	<ellipse fill="#DF0A14" cx="143.5" cy="215.6" rx="8.5" ry="8.5"/>
	<circle fill="#2E2C2B" cx="143.5" cy="215.6" r="4.7"/>
	<rect x="143.5" y="78.9" opacity="0.59" fill="#D6D2D2" width="63.1" height="149.3"/>
	<rect x="20.5" y="78.9" opacity="0.23" fill="#FFFFFF" width="123" height="149.4"/>
	<rect x="65.5" y="218.1" fill="#8C8C8C" width="3.3" height="24.1"/>
	<circle fill="#61B562" cx="67.2" cy="218.1" r="7.7"/>
	<polygon fill="#F5F5F5" points="11.4,27.2 0,27.2 12.1,0 23.5,0 	"/>
	<polygon fill="#F0A436" points="35.4,27.2 24,27.2 36.1,0 47.5,0 	"/>
	<polygon fill="#F5F5F5" points="59.4,27.2 48,27.2 60.1,0 71.5,0 	"/>
	<polygon fill="#F0A436" points="83.4,27.2 72,27.2 84.1,0 95.5,0 	"/>
	<polygon fill="#F5F5F5" points="107.4,27.2 96,27.2 108.1,0 119.5,0 	"/>
	<polygon fill="#F0A436" points="131.4,27.2 120,27.2 132.1,0 143.5,0 	"/>
	<polygon fill="#C7C6C7" points="154.9,27.2 143.5,27.2 155.6,0 167,0 	"/>
	<polygon fill="#BA7114" points="178.9,27.2 167.5,27.2 179.6,0 191,0 	"/>
	<polygon fill="#C7C6C7" points="202.9,27.2 191.5,27.2 203.6,0 215,0 	"/>
	<polygon fill="#BA7114" points="226.9,27.2 215.5,27.2 227.6,0 239,0 	"/>
</g>
</svg>
