<?xml version="1.0" encoding="utf-8"?>
<!-- Generator: Adobe Illustrator 16.2.1, SVG Export Plug-In . SVG Version: 6.00 Build 0)  -->
<!DOCTYPE svg PUBLIC "-//W3C//DTD SVG 1.1//EN" "http://www.w3.org/Graphics/SVG/1.1/DTD/svg11.dtd">
<svg version="1.1" id="Layer_1" xmlns="http://www.w3.org/2000/svg" xmlns:xlink="http://www.w3.org/1999/xlink" x="0px" y="0px"
	 width="264px" height="410px" viewBox="0 0 264 410" enable-background="new 0 0 264 410" xml:space="preserve">
<g>
	<path fill="#55474D" d="M103.5,60.9c0-24.2-19.7-43.8-43.9-43.8c-24.2,0-43.9,19.6-43.9,43.8c0,12.3,7.7,24.6,12.9,31.3l30.9,35.7
		l30.9-35.7C95.7,85.5,103.5,73.1,103.5,60.9z"/>
	<path fill="#1E1A1C" d="M59.8,17L59.8,17l-0.1,110.8l30.9-35.7c5.2-6.7,13-19,13-31.3C103.6,36.7,84,17,59.8,17z"/>
	<path fill="#858284" d="M35.8,88.8c-1.1,0-2.2-0.4-3.1-1.2c-0.4-0.4-10.7-10.2-10.7-27c0-16.8,10.3-26.3,10.7-26.7
		c1.8-1.7,4.7-1.5,6.4,0.3c1.7,1.8,1.5,4.7-0.3,6.4c-0.4,0.3-7.8,7.4-7.8,20.1c0,12.8,7.5,20.1,7.9,20.4c1.8,1.7,1.9,4.6,0.2,6.4
		C38.2,88.3,37,88.8,35.8,88.8z"/>
	<path fill="#858284" d="M40.5,30.3c0-2.8,2.3-5.1,5.1-5.1c2.8,0,5.1,2.3,5.1,5.1c0,2.8-2.3,5.1-5.1,5.1
		C42.8,35.4,40.5,33.1,40.5,30.3z"/>
	<polygon fill="#1E1A1C" points="56.1,134 59.7,127.8 63.3,134 	"/>
	<path fill="#E42A25" d="M219.8,43.8c0-24.2-19.6-43.8-43.9-43.8C151.7,0,132,19.6,132,43.8c0,12.3,7.7,24.6,12.9,31.3l30.9,35.7
		l30.9-35.7C211.9,68.4,219.8,56.1,219.8,43.8z"/>
	<path fill="#91181C" d="M176,0L176,0L176,110.8l30.9-35.7c5.2-6.7,13-19,13-31.3C219.9,19.6,200.3,0,176,0z"/>
	<path fill="#F1898F" d="M152.1,71.8c-1.1,0-2.2-0.4-3.1-1.2c-0.4-0.4-10.7-10.2-10.7-27c0-16.8,10.3-26.3,10.7-26.7
		c1.9-1.7,4.7-1.5,6.4,0.3c1.7,1.8,1.5,4.7-0.3,6.4c-0.4,0.3-7.8,7.4-7.8,20.1c0,12.8,7.5,20.1,7.8,20.4c1.8,1.7,1.9,4.6,0.2,6.4
		C154.5,71.3,153.3,71.8,152.1,71.8z"/>
	<path fill="#F1898F" d="M156.8,13.3c0-2.8,2.3-5.1,5.1-5.1c2.8,0,5.1,2.3,5.1,5.1c0,2.8-2.3,5.1-5.1,5.1
		C159.1,18.4,156.8,16.1,156.8,13.3z"/>
	<polygon fill="#91181C" points="172.4,116.9 176,110.8 179.5,116.9 	"/>
	<path fill="#E9609B" d="M132,137.5c0-24.2-19.6-43.8-43.9-43.8c-24.2,0-43.9,19.6-43.9,43.8c0,12.3,7.7,24.6,12.9,31.3l30.9,35.7
		l30.9-35.7C124.2,162.1,132,149.8,132,137.5z"/>
	<path fill="#CF1A79" d="M88.3,93.7L88.3,93.7l-0.1,110.8l30.9-35.7c5.2-6.7,13-19,13-31.3C132.1,113.3,112.5,93.7,88.3,93.7z"/>
	<path fill="#F1AFCC" d="M64.3,165.4c-1.1,0-2.2-0.4-3.1-1.2c-0.4-0.4-10.7-10.2-10.7-27c0-16.8,10.3-26.3,10.7-26.7
		c1.9-1.7,4.7-1.5,6.4,0.3c1.7,1.8,1.5,4.7-0.3,6.4c-0.4,0.3-7.8,7.4-7.8,20.1c0,12.8,7.5,20.1,7.9,20.4c1.8,1.7,1.9,4.6,0.2,6.4
		C66.7,165,65.5,165.4,64.3,165.4z"/>
	<path fill="#F1AFCC" d="M69,106.9c0-2.8,2.3-5.1,5.1-5.1c2.8,0,5.1,2.3,5.1,5.1c0,2.8-2.3,5.1-5.1,5.1
		C71.3,112.1,69,109.8,69,106.9z"/>
	<polygon fill="#CF1A79" points="84.6,210.6 88.2,204.4 91.8,210.6 	"/>
	<path fill="#55BDE6" d="M88.1,177.3c0-24.2-19.7-43.8-43.9-43.8c-24.2,0-43.9,19.6-43.9,43.8c0,12.3,7.7,24.6,12.9,31.3l30.9,35.7
		L75,208.6C80.2,201.9,88.1,189.6,88.1,177.3z"/>
	<path fill="#0A6688" d="M44.3,133.4L44.3,133.4l-0.1,110.8l30.9-35.7c5.2-6.7,13-19,13-31.3C88.2,153.1,68.5,133.4,44.3,133.4z"/>
	<path fill="#BDE3F6" d="M20.4,205.2c-1.1,0-2.2-0.4-3.1-1.2c-0.4-0.4-10.7-10.2-10.7-27c0-16.8,10.3-26.3,10.7-26.7
		c1.8-1.7,4.7-1.5,6.4,0.3c1.7,1.8,1.5,4.7-0.3,6.4c-0.4,0.3-7.8,7.4-7.8,20.1c0,12.8,7.5,20.1,7.9,20.4c1.8,1.7,1.9,4.6,0.2,6.4
		C22.7,204.8,21.6,205.2,20.4,205.2z"/>
	<path fill="#BDE3F6" d="M25,146.7c0-2.8,2.3-5.1,5.1-5.1c2.8,0,5.1,2.3,5.1,5.1c0,2.8-2.3,5.1-5.1,5.1
		C27.4,151.9,25,149.6,25,146.7z"/>
	<polygon fill="#0989B0" points="40.7,250.4 44.2,244.2 47.8,250.4 	"/>
	<path fill="#E9609B" d="M218.2,336.9c0-24.2-19.7-43.8-43.9-43.8c-24.2,0-43.9,19.6-43.9,43.8c0,12.3,7.7,24.6,12.9,31.3l30.9,35.7
		l30.9-35.7C210.3,361.5,218.2,349.2,218.2,336.9z"/>
	<path fill="#CF1A79" d="M174.4,293.1L174.4,293.1l-0.1,110.8l30.9-35.7c5.2-6.7,13-19,13-31.3C218.3,312.7,198.7,293.1,174.4,293.1
		z"/>
	<path fill="#F1AFCC" d="M155.2,306.3c0-2.8,2.3-5.1,5.1-5.1c2.8,0,5.1,2.3,5.1,5.1c0,2.8-2.3,5.1-5.1,5.1
		C157.5,311.5,155.2,309.2,155.2,306.3z"/>
	<polygon fill="#CF1A79" points="170.8,410 174.4,403.8 177.9,410 	"/>
	<path fill="#55BDE6" d="M219.2,137.2c0-24.2-19.7-43.8-43.9-43.8c-24.2,0-43.9,19.6-43.9,43.8c0,12.3,7.7,24.6,12.9,31.3l30.9,35.7
		l30.9-35.7C211.3,161.8,219.2,149.5,219.2,137.2z"/>
	<path fill="#0A6688" d="M175.4,93.4L175.4,93.4l-0.1,110.8l30.9-35.7c5.2-6.7,13-19,13-31.3C219.3,113,199.7,93.4,175.4,93.4z"/>
	<path fill="#BDE3F6" d="M151.5,165.2c-1.1,0-2.2-0.4-3.1-1.2c-0.4-0.4-10.7-10.2-10.7-27c0-16.8,10.3-26.3,10.7-26.7
		c1.9-1.7,4.7-1.5,6.4,0.3c1.7,1.8,1.5,4.7-0.3,6.4c-0.4,0.3-7.8,7.4-7.8,20.1c0,12.8,7.5,20.1,7.9,20.4c1.8,1.7,1.9,4.6,0.2,6.4
		C153.9,164.7,152.7,165.2,151.5,165.2z"/>
	<path fill="#BDE3F6" d="M156.2,106.7c0-2.8,2.3-5.1,5.1-5.1c2.8,0,5.1,2.3,5.1,5.1c0,2.8-2.3,5.1-5.1,5.1
		C158.5,111.8,156.2,109.5,156.2,106.7z"/>
	<polygon fill="#0989B0" points="171.8,210.3 175.4,204.1 178.9,210.3 	"/>
	<path fill="#55BDE6" d="M175.4,281.3c0-24.2-19.7-43.8-43.9-43.8c-24.2,0-43.9,19.6-43.9,43.8c0,12.3,7.7,24.6,12.9,31.3l30.9,35.7
		l30.9-35.7C167.6,305.9,175.4,293.5,175.4,281.3z"/>
	<path fill="#0A6688" d="M131.7,237.4L131.7,237.4l-0.1,110.8l30.9-35.7c5.2-6.7,13-19,13-31.3C175.6,257.1,155.9,237.4,131.7,237.4
		z"/>
	<path fill="#BDE3F6" d="M107.7,309.2c-1.1,0-2.2-0.4-3.1-1.2c-0.4-0.4-10.7-10.2-10.7-27c0-16.8,10.3-26.3,10.7-26.7
		c1.8-1.7,4.7-1.5,6.4,0.3c1.7,1.8,1.5,4.7-0.3,6.4c-0.4,0.3-7.8,7.4-7.8,20.1c0,12.8,7.5,20.1,7.9,20.4c1.8,1.7,1.9,4.6,0.2,6.4
		C110.1,308.7,108.9,309.2,107.7,309.2z"/>
	<path fill="#BDE3F6" d="M112.4,250.7c0-2.8,2.3-5.1,5.1-5.1c2.8,0,5.1,2.3,5.1,5.1c0,2.8-2.3,5.1-5.1,5.1
		C114.7,255.8,112.4,253.5,112.4,250.7z"/>
	<polygon fill="#0989B0" points="128,354.4 131.6,348.2 135.2,354.4 	"/>
	<path fill="#E42A25" d="M176,177.3c0-24.2-19.6-43.8-43.9-43.8c-24.2,0-43.9,19.6-43.9,43.8c0,12.3,7.7,24.6,12.9,31.3l30.9,35.7
		l30.9-35.7C168.1,201.9,176,189.6,176,177.3z"/>
	<path fill="#91181C" d="M132.2,133.4L132.2,133.4l-0.1,110.8l30.9-35.7c5.2-6.7,13-19,13-31.3C176.1,153.1,156.5,133.4,132.2,133.4
		z"/>
	<path fill="#F1898F" d="M108.3,205.2c-1.1,0-2.2-0.4-3.1-1.2c-0.4-0.4-10.7-10.2-10.7-27c0-16.8,10.3-26.3,10.7-26.7
		c1.9-1.7,4.7-1.5,6.4,0.3c1.7,1.8,1.5,4.7-0.3,6.4c-0.4,0.3-7.8,7.4-7.8,20.1c0,12.8,7.5,20.1,7.9,20.4c1.8,1.7,1.9,4.6,0.2,6.4
		C110.6,204.8,109.5,205.2,108.3,205.2z"/>
	<path fill="#F1898F" d="M113,146.7c0-2.8,2.3-5.1,5.1-5.1s5.1,2.3,5.1,5.1c0,2.8-2.3,5.1-5.1,5.1S113,149.6,113,146.7z"/>
	<polygon fill="#91181C" points="128.6,250.4 132.1,244.2 135.7,250.4 	"/>
	<path fill="#E42A25" d="M262.1,336.6c0-24.2-19.7-43.8-43.9-43.8s-43.9,19.6-43.9,43.8c0,12.3,7.7,24.6,12.9,31.3l30.9,35.7
		l30.9-35.7C254.3,361.3,262.1,348.9,262.1,336.6z"/>
	<path fill="#91181C" d="M218.4,292.8L218.4,292.8l-0.1,110.8l30.9-35.7c5.2-6.7,13-19,13-31.3C262.3,312.4,242.6,292.8,218.4,292.8
		z"/>
	<path fill="#F1898F" d="M194.4,364.6c-1.1,0-2.2-0.4-3.1-1.2c-0.4-0.4-10.7-10.2-10.7-27c0-16.8,10.3-26.3,10.7-26.7
		c1.8-1.7,4.7-1.5,6.4,0.3c1.7,1.8,1.5,4.7-0.3,6.4c-0.4,0.3-7.8,7.4-7.8,20.1c0,12.8,7.5,20.1,7.8,20.4c1.8,1.7,1.9,4.6,0.2,6.4
		C196.8,364.1,195.6,364.6,194.4,364.6z"/>
	<path fill="#F1898F" d="M199.1,306.1c0-2.8,2.3-5.1,5.1-5.1c2.8,0,5.1,2.3,5.1,5.1c0,2.8-2.3,5.1-5.1,5.1
		C201.4,311.2,199.1,308.9,199.1,306.1z"/>
	<polygon fill="#91181C" points="214.7,409.8 218.3,403.6 221.9,409.8 	"/>
	<path fill="#6B408F" d="M263.9,177.3c0-24.2-19.6-43.8-43.9-43.8c-24.2,0-43.9,19.6-43.9,43.8c0,12.3,7.7,24.6,12.9,31.3l30.9,35.7
		l30.9-35.7C256,201.9,263.9,189.6,263.9,177.3z"/>
	<path fill="#402763" d="M220.1,133.4L220.1,133.4L220,244.3l30.9-35.7c5.2-6.7,13-19,13-31.3C264,153.1,244.4,133.4,220.1,133.4z"
		/>
	<path fill="#AD8CBC" d="M196.2,205.2c-1.1,0-2.2-0.4-3.1-1.2c-0.4-0.4-10.7-10.2-10.7-27c0-16.8,10.3-26.3,10.7-26.7
		c1.9-1.7,4.7-1.5,6.4,0.3c1.7,1.8,1.5,4.7-0.3,6.4c-0.4,0.3-7.8,7.4-7.8,20.1c0,12.8,7.5,20.1,7.8,20.4c1.8,1.7,1.9,4.6,0.2,6.4
		C198.6,204.8,197.4,205.2,196.2,205.2z"/>
	<path fill="#AD8CBC" d="M200.9,146.7c0-2.8,2.3-5.1,5.1-5.1s5.1,2.3,5.1,5.1c0,2.8-2.3,5.1-5.1,5.1S200.9,149.6,200.9,146.7z"/>
	<polygon fill="#402763" points="216.5,250.4 220,244.2 223.6,250.4 	"/>
	<path fill="#6B408F" d="M87.8,275.5c0-24.2-19.6-43.8-43.9-43.8C19.6,231.6,0,251.2,0,275.5c0,12.3,7.7,24.6,12.9,31.3l30.9,35.7
		l30.9-35.7C79.9,300.1,87.8,287.7,87.8,275.5z"/>
	<path fill="#402763" d="M44,231.6L44,231.6l-0.1,110.8l30.9-35.7c5.2-6.7,13-19,13-31.3C87.9,251.2,68.3,231.6,44,231.6z"/>
	<path fill="#AD8CBC" d="M20.1,303.4c-1.1,0-2.2-0.4-3.1-1.2c-0.4-0.4-10.7-10.2-10.7-27c0-16.8,10.3-26.3,10.7-26.7
		c1.9-1.7,4.7-1.5,6.4,0.3c1.7,1.8,1.5,4.7-0.3,6.4c-0.4,0.3-7.8,7.4-7.8,20.1c0,12.8,7.5,20.1,7.8,20.4c1.8,1.7,1.9,4.6,0.2,6.4
		C22.5,302.9,21.3,303.4,20.1,303.4z"/>
	<path fill="#AD8CBC" d="M24.8,244.9c0-2.8,2.3-5.1,5.1-5.1c2.8,0,5.1,2.3,5.1,5.1c0,2.8-2.3,5.1-5.1,5.1
		C27.1,250,24.8,247.7,24.8,244.9z"/>
	<polygon fill="#402763" points="40.4,348.6 43.9,342.4 47.5,348.6 	"/>
	<path fill="#55474D" d="M219.4,240.4c0-24.2-19.6-43.8-43.9-43.8c-24.2,0-43.9,19.6-43.9,43.8c0,12.3,7.7,24.6,12.9,31.3l30.9,35.7
		l30.9-35.7C211.5,265,219.4,252.7,219.4,240.4z"/>
	<path fill="#1E1A1C" d="M175.6,196.6L175.6,196.6l-0.1,110.8l30.9-35.7c5.2-6.7,13-19,13-31.3C219.5,216.2,199.9,196.6,175.6,196.6
		z"/>
	<path fill="#858284" d="M151.7,268.4c-1.1,0-2.2-0.4-3.1-1.2c-0.4-0.4-10.7-10.2-10.7-27c0-16.8,10.3-26.3,10.7-26.7
		c1.9-1.7,4.7-1.5,6.4,0.3c1.7,1.8,1.5,4.7-0.3,6.4c-0.4,0.3-7.8,7.4-7.8,20.1c0,12.8,7.5,20.1,7.8,20.4c1.8,1.7,1.9,4.6,0.2,6.4
		C154.1,267.9,152.9,268.4,151.7,268.4z"/>
	<path fill="#858284" d="M156.4,209.9c0-2.8,2.3-5.1,5.1-5.1c2.8,0,5.1,2.3,5.1,5.1c0,2.8-2.3,5.1-5.1,5.1
		C158.7,215,156.4,212.7,156.4,209.9z"/>
	<polygon fill="#1E1A1C" points="172,313.5 175.6,307.3 179.1,313.5 	"/>
	<path fill="#E9609B" d="M132,241.4c0-24.2-19.6-43.8-43.9-43.8c-24.2,0-43.9,19.6-43.9,43.8c0,12.3,7.7,24.6,12.9,31.3l30.9,35.7
		l30.9-35.7C124.2,266.1,132,253.7,132,241.4z"/>
	<path fill="#CF1A79" d="M88.3,197.6L88.3,197.6l-0.1,110.8l30.9-35.7c5.2-6.7,13-19,13-31.3C132.1,217.2,112.5,197.6,88.3,197.6z"
		/>
	<path fill="#F1AFCC" d="M64.3,269.4c-1.1,0-2.2-0.4-3.1-1.2c-0.4-0.4-10.7-10.2-10.7-27c0-16.8,10.3-26.3,10.7-26.7
		c1.9-1.7,4.7-1.5,6.4,0.3c1.7,1.8,1.5,4.7-0.3,6.4c-0.4,0.3-7.8,7.4-7.8,20.1c0,12.8,7.5,20.1,7.9,20.4c1.8,1.7,1.9,4.6,0.2,6.4
		C66.7,268.9,65.5,269.4,64.3,269.4z"/>
	<path fill="#F1AFCC" d="M69,210.9c0-2.8,2.3-5.1,5.1-5.1c2.8,0,5.1,2.3,5.1,5.1c0,2.8-2.3,5.1-5.1,5.1C71.3,216,69,213.7,69,210.9z
		"/>
	<polygon fill="#CF1A79" points="84.6,314.6 88.2,308.4 91.8,314.6 	"/>
</g>
</svg>
