<?xml version="1.0" encoding="utf-8"?>
<!-- Generator: Adobe Illustrator 16.2.1, SVG Export Plug-In . SVG Version: 6.00 Build 0)  -->
<!DOCTYPE svg PUBLIC "-//W3C//DTD SVG 1.1//EN" "http://www.w3.org/Graphics/SVG/1.1/DTD/svg11.dtd">
<svg version="1.1" id="Layer_1" xmlns="http://www.w3.org/2000/svg" xmlns:xlink="http://www.w3.org/1999/xlink" x="0px" y="0px"
	 width="284px" height="374px" viewBox="0 0 284 374" enable-background="new 0 0 284 374" xml:space="preserve">
<g>
	<g>
		<defs>
			<path id="SVGID_1_" d="M59.4,211.7h-1.1c0,8.6-3.2,16.2-9.7,22.6c-6.5,6.4-14,9.7-22.6,9.7v1.1c8.6,0,16.2,3.2,22.6,9.7
				c6.4,6.5,9.7,14,9.7,22.6h1.1c0-8.6,3.2-16.2,9.7-22.6c6.4-6.4,14-9.7,22.6-9.7V244c-8.6,0-16.2-3.2-22.6-9.7
				C62.7,227.8,59.4,220.3,59.4,211.7"/>
		</defs>
		<clipPath id="SVGID_2_">
			<use xlink:href="#SVGID_1_"  overflow="visible"/>
		</clipPath>
		<g transform="matrix(1 0 0 1 1.907349e-06 3.051758e-05)" clip-path="url(#SVGID_2_)">
			
				<image overflow="visible" width="140" height="140" xlink:href="5C68D05FB8FC098C.png"  transform="matrix(0.48 0 0 -0.48 25.4399 277.9199)">
			</image>
		</g>
	</g>
	<g>
		<defs>
			<path id="SVGID_3_" d="M213.9,21.2h-1.1c0,8.6-3.2,16.2-9.7,22.6c-6.5,6.4-14,9.7-22.6,9.7v1.1c8.6,0,16.2,3.2,22.6,9.7
				c6.4,6.5,9.7,14,9.7,22.6h1.1c0-8.6,3.2-16.2,9.7-22.6c6.4-6.4,14-9.7,22.6-9.7v-1.1c-8.6,0-16.2-3.2-22.6-9.7
				C217.1,37.3,213.9,29.8,213.9,21.2"/>
		</defs>
		<clipPath id="SVGID_4_">
			<use xlink:href="#SVGID_3_"  overflow="visible"/>
		</clipPath>
		<g transform="matrix(1 0 0 1 0 7.629395e-06)" clip-path="url(#SVGID_4_)">
			
				<image overflow="visible" width="139" height="140" xlink:href="5C68D05FB8FC098E.png"  transform="matrix(0.48 0 0 -0.48 180 87.8398)">
			</image>
		</g>
	</g>
	<g>
		<defs>
			<path id="SVGID_5_" d="M131.7,0h-0.8c0,6.3-2.4,11.9-7.1,16.6c-4.7,4.7-10.3,7.1-16.6,7.1v0.8c6.3,0,11.9,2.4,16.6,7.1
				c4.7,4.7,7.1,10.3,7.1,16.6h0.8c0-6.3,2.4-11.9,7.1-16.6c4.7-4.7,10.3-7.1,16.6-7.1v-0.8c-6.3,0-11.9-2.4-16.6-7.1
				C134.1,11.8,131.7,6.3,131.7,0"/>
		</defs>
		<clipPath id="SVGID_6_">
			<use xlink:href="#SVGID_5_"  overflow="visible"/>
		</clipPath>
		<g transform="matrix(1 0 0 1 7.629395e-06 3.814697e-06)" clip-path="url(#SVGID_6_)">
			
				<image overflow="visible" width="103" height="103" xlink:href="5C68D05FB8FC098A.png"  transform="matrix(0.48 0 0 -0.48 106.5601 48.96)">
			</image>
		</g>
	</g>
	<path fill="#DF0A14" d="M258.9,94.9c-12.2,0-22.4,8.7-24.6,20.2c2.8-1.7,5.9-3.8,9.2-6.7l1.3-1.6c0.3-0.2,0.6-0.5,0.8-0.7
		c2.4-2.3,5.4-4,8.8-4.8c1.7-0.5,3.3-0.7,5-0.7c5.3,0,9.8,1.9,13.6,5.7c3.8,3.8,5.7,8.4,5.7,13.7c0,5.3-1.9,9.9-5.7,13.7
		c-3.8,3.8-8.3,5.6-13.6,5.6c-0.1,0-0.1,0-0.2,0c-0.1,0-0.1,0-0.2,0c-5.9,0-11.2-2.6-14.7-6.8l-0.8-0.9c-3.3-2.9-6.4-5-9.2-6.6
		c2.3,11.5,12.5,20.2,24.6,20.2c13.9,0,25.1-11.3,25.1-25.1C284,106.2,272.7,94.9,258.9,94.9"/>
	<rect x="256.8" y="142" fill-rule="evenodd" clip-rule="evenodd" fill="#DF0A14" width="4.9" height="67.4"/>
	<path fill-rule="evenodd" clip-rule="evenodd" fill="#DF0A14" d="M250.8,232.8l8.4-36.9l8.2,36.9h0c0.1,0.6,0.2,1.3,0.2,1.9
		c0,4.7-3.8,8.4-8.4,8.4c-4.7,0-8.4-3.8-8.4-8.4c0-0.7,0.1-1.3,0.2-1.9H250.8z"/>
	<path fill="#F0A436" d="M244.2,132.5c3.5,4.2,8.8,6.8,14.7,6.8c0.1,0,0.1,0,0.2,0c-4.7,0-9.4-1.7-14.1-5.9L244.2,132.5
		 M254.3,101.3c-3.4,0.8-6.4,2.5-8.8,4.8C248.4,103.8,251.4,102.2,254.3,101.3"/>
	<path opacity="0.5" fill="#FFFFFF" d="M84.2,133.7C76.8,148.1,61.8,158,44.5,158c-5.9,0-11.6-1.2-16.8-3.3
		c-0.5,2.4-0.8,4.8-0.8,7.4c0,3.7,0.6,7.3,1.6,10.7C41,173.2,51,183.4,51,195.9c3.6,1.2,7.5,1.9,11.6,1.9c1.4,0,2.8-0.1,4.1-0.2
		c0-0.5,0-1,0-1.5c0-12.8,10.4-23.2,23.2-23.2c2.2,0,4.4,0.3,6.4,0.9c1.3-3.6,1.9-7.5,1.9-11.6C98.3,150.5,92.8,140.2,84.2,133.7"/>
	<g>
		<defs>
			<path id="SVGID_7_" d="M44.5,69C19.9,69,0,88.9,0,113.5c0,18.6,11.4,34.6,27.7,41.2c3.4-16.2,17.7-28.3,34.9-28.3
				c8.1,0,15.6,2.7,21.6,7.3c3.1-6.1,4.8-12.9,4.8-20.2C89,88.9,69.1,69,44.5,69"/>
		</defs>
		<clipPath id="SVGID_8_">
			<use xlink:href="#SVGID_7_"  overflow="visible"/>
		</clipPath>
		<g transform="matrix(1 0 0 1 -2.980232e-08 1.525879e-05)" clip-path="url(#SVGID_8_)">
			
				<image overflow="visible" width="188" height="182" xlink:href="5C68D05FB8FC098B.png"  transform="matrix(0.48 0 0 -0.48 -0.48 155.52)">
			</image>
		</g>
	</g>
	<g>
		<defs>
			<path id="SVGID_9_" d="M62.6,126.4c-17.2,0-31.5,12.1-34.9,28.3c5.2,2.1,10.9,3.3,16.8,3.3c17.3,0,32.3-9.9,39.7-24.3
				C78.2,129.1,70.7,126.4,62.6,126.4"/>
		</defs>
		<clipPath id="SVGID_10_">
			<use xlink:href="#SVGID_9_"  overflow="visible"/>
		</clipPath>
		<g transform="matrix(1 0 0 1 1.907349e-06 0)" clip-path="url(#SVGID_10_)">
			
				<image overflow="visible" width="121" height="69" xlink:href="5C68D05FB8FC0984.png"  transform="matrix(0.48 0 0 -0.48 26.8799 158.8799)">
			</image>
		</g>
	</g>
	<path opacity="0.92" fill-rule="evenodd" clip-rule="evenodd" fill="#F5F5F5" d="M174.2,167.8c8.9,0,16.3,6.6,17.4,15.3
		c1.4-12.3,11.8-21.9,24.4-21.9c13.6,0,24.6,11,24.6,24.6c0,8.9-4.7,16.7-11.8,21c1.7,1.8,2.7,4.2,2.7,6.9c0,5.6-4.5,10.1-10.1,10.1
		c-5.6,0-10.1-4.5-10.1-10.1c0-1.3,0.2-2.5,0.7-3.6c-11-1.8-19.5-10.8-20.5-22c-1.3,8.4-8.6,14.9-17.4,14.9
		c-9.7,0-17.6-7.9-17.6-17.6C156.6,175.7,164.5,167.8,174.2,167.8z"/>
	<g>
		<defs>
			<path id="SVGID_11_" d="M96.4,173.7c-4.4,12.8-15.8,22.2-29.6,23.8c0.8,12.1,10.9,21.7,23.2,21.7c12.8,0,23.2-10.4,23.2-23.2
				C113.1,185.4,106,176.5,96.4,173.7"/>
		</defs>
		<clipPath id="SVGID_12_">
			<use xlink:href="#SVGID_11_"  overflow="visible"/>
		</clipPath>
		<g transform="matrix(1 0 0 1 0 1.525879e-05)" clip-path="url(#SVGID_12_)">
			
				<image overflow="visible" width="99" height="98" xlink:href="5C68D05FB8FC0999.png"  transform="matrix(0.48 0 0 -0.48 66.2402 219.8398)">
			</image>
		</g>
	</g>
	<g>
		<defs>
			<path id="SVGID_13_" d="M89.9,172.8c-12.8,0-23.2,10.4-23.2,23.2c0,0.5,0,1,0,1.5c13.8-1.6,25.2-11.1,29.6-23.8
				C94.3,173.1,92.1,172.8,89.9,172.8"/>
		</defs>
		<clipPath id="SVGID_14_">
			<use xlink:href="#SVGID_13_"  overflow="visible"/>
		</clipPath>
		<g transform="matrix(1 0 0 1 0 1.525879e-05)" clip-path="url(#SVGID_14_)">
			
				<image overflow="visible" width="65" height="55" xlink:href="5C68D05FB8FC099A.png"  transform="matrix(0.48 0 0 -0.48 65.7598 198.2402)">
			</image>
		</g>
	</g>
	<g>
		<defs>
			<path id="SVGID_15_" d="M27.8,172.8C15,172.8,4.6,183.2,4.6,196c0,12.8,10.4,23.2,23.2,23.2c12.8,0,23.2-10.4,23.2-23.2
				c0,0,0-0.1,0-0.1c-10.7-3.7-19.1-12.2-22.5-23.1C28.3,172.8,28.1,172.8,27.8,172.8"/>
		</defs>
		<clipPath id="SVGID_16_">
			<use xlink:href="#SVGID_15_"  overflow="visible"/>
		</clipPath>
		<g transform="matrix(1 0 0 1 2.384186e-07 1.525879e-05)" clip-path="url(#SVGID_16_)">
			
				<image overflow="visible" width="100" height="100" xlink:href="5C68D05FB8FC099B.png"  transform="matrix(0.48 0 0 -0.48 3.8398 219.8398)">
			</image>
		</g>
	</g>
	<g>
		<defs>
			<path id="SVGID_17_" d="M28.6,172.8c3.4,10.8,11.8,19.4,22.5,23.1C51,183.4,41,173.2,28.6,172.8"/>
		</defs>
		<clipPath id="SVGID_18_">
			<use xlink:href="#SVGID_17_"  overflow="visible"/>
		</clipPath>
		<g transform="matrix(1 0 0 1 1.907349e-06 1.525879e-05)" clip-path="url(#SVGID_18_)">
			
				<image overflow="visible" width="50" height="51" xlink:href="5C68D05FB8FC099C.png"  transform="matrix(0.48 0 0 -0.48 27.8398 196.7998)">
			</image>
		</g>
	</g>
	<path opacity="0.5" fill="#FFFFFF" d="M106.6,39.8c0.3,1.5,0.5,3,0.5,4.6c0,12.8-10.4,23.2-23.2,23.2c-2.2,0-4.3-0.3-6.3-0.9
		c2.1,10.6,11.5,18.6,22.7,18.6c12.8,0,23.2-10.4,23.2-23.2C123.6,51.5,116.4,42.5,106.6,39.8"/>
	<g>
		<defs>
			<path id="SVGID_19_" d="M83.9,21.2c-12.8,0-23.2,10.4-23.2,23.2c0,10.7,7.2,19.6,17,22.4c-0.3-1.5-0.5-3-0.5-4.6
				c0-12.8,10.4-23.2,23.2-23.2c2.2,0,4.3,0.3,6.3,0.9C104.5,29.2,95.1,21.2,83.9,21.2"/>
		</defs>
		<clipPath id="SVGID_20_">
			<use xlink:href="#SVGID_19_"  overflow="visible"/>
		</clipPath>
		<g transform="matrix(1 0 0 1 3.814697e-06 0)" clip-path="url(#SVGID_20_)">
			
				<image overflow="visible" width="99" height="98" xlink:href="5B261DD5BC6D604F.png"  transform="matrix(0.48 0 0 -0.48 60 67.6802)">
			</image>
		</g>
	</g>
	<g>
		<defs>
			<path id="SVGID_21_" d="M100.4,38.9c-12.8,0-23.2,10.4-23.2,23.2c0,1.6,0.2,3.1,0.5,4.6c2,0.6,4.1,0.9,6.3,0.9
				c12.8,0,23.2-10.4,23.2-23.2c0-1.6-0.2-3.1-0.5-4.6C104.6,39.2,102.5,38.9,100.4,38.9"/>
		</defs>
		<clipPath id="SVGID_22_">
			<use xlink:href="#SVGID_21_"  overflow="visible"/>
		</clipPath>
		<g transform="matrix(1 0 0 1 0 7.629395e-06)" clip-path="url(#SVGID_22_)">
			
				<image overflow="visible" width="66" height="62" xlink:href="5B261DD5BC6D604B.png"  transform="matrix(0.48 0 0 -0.48 76.3198 68.1602)">
			</image>
		</g>
	</g>
	<g>
		<defs>
			<path id="SVGID_23_" d="M91.4,267.1c-12.8,0-23.2,10.4-23.2,23.2c0,12.8,10.4,23.2,23.2,23.2c12.8,0,23.2-10.4,23.2-23.2
				C114.6,277.5,104.2,267.1,91.4,267.1"/>
		</defs>
		<clipPath id="SVGID_24_">
			<use xlink:href="#SVGID_23_"  overflow="visible"/>
		</clipPath>
		<g transform="matrix(1 0 0 1 0 3.051758e-05)" clip-path="url(#SVGID_24_)">
			
				<image overflow="visible" width="99" height="100" xlink:href="5B261DD5BC6D6056.png"  transform="matrix(0.48 0 0 -0.48 67.6802 314.3999)">
			</image>
		</g>
	</g>
	<g>
		<defs>
			<path id="SVGID_25_" d="M148.5,78c-11.4,0-21.2,4.1-29.4,12.4c-8.2,8.2-12.3,18.1-12.3,29.7c0,11.5,4.1,21.4,12.3,29.6
				c8.2,8.3,18,12.4,29.4,12.4c10.3,0,20.7-4.6,31-13.9l3.4-3.1c8-7.1,15.4-12.4,22.3-15.8c4.1-2.1,11.8-7.2,19.7-7.2
				c2.7,0,5.5,0.6,8.2,2.2c0.4,0.2,0.7,0.4,1.1,0.7c-0.3-1.6-0.5-3.2-0.5-4.9c0-1.7,0.2-3.3,0.5-4.9c-0.4,0.2-0.8,0.5-1.1,0.7
				c-3.1,1.8-6.1,2.5-8.9,2.5c-7,0-13.1-4.4-19-7.5c-6.8-3.6-14.3-8.7-22.3-15.8l-3.4-3.1C169.1,82.6,158.8,78,148.5,78"/>
		</defs>
		<clipPath id="SVGID_26_">
			<use xlink:href="#SVGID_25_"  overflow="visible"/>
		</clipPath>
		<g transform="matrix(1 0 0 1 7.629395e-06 1.525879e-05)" clip-path="url(#SVGID_26_)">
			
				<image overflow="visible" width="268" height="178" xlink:href="5B261DD5BC6D6057.png"  transform="matrix(0.48 0 0 -0.48 106.0801 162.7202)">
			</image>
		</g>
	</g>
	<g>
		<defs>
			<path id="SVGID_27_" d="M245.5,106.2c-0.3,0.2-0.6,0.5-0.8,0.7l-1.3,1.6c-3.3,2.9-6.4,5-9.2,6.7c-0.3,1.6-0.5,3.2-0.5,4.9
				c0,1.7,0.2,3.3,0.5,4.9c2.8,1.7,5.9,3.8,9.2,6.6l0.8,0.9c-2.8-3.4-4.6-7.7-4.6-12.4C239.6,114.6,241.9,109.7,245.5,106.2
				 M259.3,100.6c-1.6,0-3.3,0.2-5,0.7c1.5-0.4,3-0.5,4.6-0.5c10.6,0,19.2,8.6,19.2,19.2c0,10.6-8.5,19.1-19,19.2c0.1,0,0.1,0,0.2,0
				c5.3,0,9.8-1.7,13.6-5.6c3.8-3.8,5.7-8.4,5.7-13.7c0-5.3-1.9-9.9-5.7-13.7C269.1,102.5,264.6,100.6,259.3,100.6"/>
		</defs>
		<clipPath id="SVGID_28_">
			<use xlink:href="#SVGID_27_"  overflow="visible"/>
		</clipPath>
		<g transform="matrix(1 0 0 1 1.525879e-05 1.525879e-05)" clip-path="url(#SVGID_28_)">
			
				<image overflow="visible" width="97" height="84" xlink:href="5B261DD5BC6D6047.png"  transform="matrix(0.48 0 0 -0.48 232.7998 140.1602)">
			</image>
		</g>
	</g>
	<g>
		<defs>
			<path id="SVGID_29_" d="M258.9,100.8c-1.6,0-3.1,0.2-4.6,0.5c-2.9,0.8-5.9,2.4-8.8,4.8c-3.6,3.5-5.9,8.4-5.9,13.9
				c0,4.7,1.7,9.1,4.6,12.4l0.8,0.9c4.7,4.2,9.4,5.9,14.1,5.9c10.5-0.1,19-8.7,19-19.2C278.1,109.4,269.5,100.8,258.9,100.8"/>
		</defs>
		<clipPath id="SVGID_30_">
			<use xlink:href="#SVGID_29_"  overflow="visible"/>
		</clipPath>
		<g transform="matrix(1 0 0 1 1.525879e-05 1.525879e-05)" clip-path="url(#SVGID_30_)">
			
				<image overflow="visible" width="83" height="83" xlink:href="5B261DD5BC6D6058.png"  transform="matrix(0.48 0 0 -0.48 239.04 140.1602)">
			</image>
		</g>
	</g>
	<ellipse opacity="0.5" fill-rule="evenodd" clip-rule="evenodd" fill="#FFFFFF" cx="177.4" cy="91" rx="17.7" ry="17.7"/>
	<polygon fill-rule="evenodd" clip-rule="evenodd" fill="#DF0A14" points="216.3,234.7 216.3,185.5 131.3,185.5 131.3,234.7 
		147.7,234.7 147.7,324.8 131.3,324.8 131.3,374 140,374 207.5,374 216.3,374 216.3,324.8 207.5,324.8 207.5,234.7 	"/>
	<rect x="131.3" y="185.5" fill-rule="evenodd" clip-rule="evenodd" fill="#8C1812" width="42.5" height="49.2"/>
	<rect x="131.3" y="324.8" fill-rule="evenodd" clip-rule="evenodd" fill="#8C1812" width="42.5" height="49.2"/>
	<rect x="138.8" y="234.7" fill-rule="evenodd" clip-rule="evenodd" fill="#0E477A" width="35" height="90.1"/>
	<rect x="173.8" y="234.7" fill-rule="evenodd" clip-rule="evenodd" fill="#1B68B2" width="33.8" height="90.1"/>
	<path fill-rule="evenodd" clip-rule="evenodd" fill="#E6F3FC" d="M153.2,279c0-11.1,9-20.2,20.2-20.2s20.2,9,20.2,20.2
		c0,11.1-9,20.2-20.2,20.2S153.2,290.1,153.2,279z"/>
	<path fill-rule="evenodd" clip-rule="evenodd" fill="#BBC0C4" d="M173.4,258.8L173.4,258.8c-11.1,0-20.2,9-20.2,20.2
		c0,11.1,9,20.2,20.2,20.2h0V258.8z"/>
	<circle opacity="0.92" fill-rule="evenodd" clip-rule="evenodd" fill="#F5F5F5" cx="225.7" cy="231.7" r="5.3"/>
</g>
</svg>
