<?xml version="1.0" encoding="utf-8"?>
<!-- Generator: Adobe Illustrator 16.2.1, SVG Export Plug-In . SVG Version: 6.00 Build 0)  -->
<!DOCTYPE svg PUBLIC "-//W3C//DTD SVG 1.1//EN" "http://www.w3.org/Graphics/SVG/1.1/DTD/svg11.dtd">
<svg version="1.1" id="Layer_1" xmlns="http://www.w3.org/2000/svg" xmlns:xlink="http://www.w3.org/1999/xlink" x="0px" y="0px"
	 width="272px" height="272px" viewBox="0 0 272 272" enable-background="new 0 0 272 272" xml:space="preserve">
<g>
	<path fill="#BB9150" d="M136,0C60.9,0,0,60.9,0,136c0,75.1,60.9,136,136,136c75.1,0,136-60.9,136-136l0,0c0,75.1-60.9,136-136,136
		v-21.7c-0.1,0-0.2,0-0.3,0c-0.1,0-0.2,0-0.3,0c-56.1,0-102.7-40.4-112.4-93.7L7.8,137.1l5.7-4l7.8,10.1c-0.1-2.4-0.2-4.7-0.2-7.1
		c0-12.3,1.9-24.1,5.5-35.2l-8.9-11.5l5.7-4l6.1,7.8c5.3-13.2,13.1-25.1,22.7-35.3l-7.3-9.5l5.7-4l6.6,8.5
		c10.4-9.8,22.7-17.7,36.2-23l-6.5-8.4l5.7-4l7.7,10c6.6-2.1,13.5-3.7,20.6-4.6c5-0.7,10.1-1,15.2-1v-5.9l-2.7-3.5l2.7-1.9V0
		C136,0,136,0,136,0"/>
	<path fill="#A3732C" d="M136,15.8v5.9l0,0l0,0l0,0c1.6,0,3.1,0,4.6,0.1L136,15.8 M136,0L136,0v10.4l3-2.1l11,14.3
		c10.9,1.3,21.3,4.2,31,8.4L149.3,105v0l31.8-74.1c13.5,5.8,25.6,14.1,35.8,24.3C227.7,66,236.4,79,242.2,93.5
		c5.3,13.1,8.1,27.5,8.1,42.5l0,0c0,16-3.3,31.2-9.2,45c-5.8,13.5-14.1,25.6-24.3,35.8c-10.9,10.9-23.9,19.5-38.4,25.3
		c-13.1,5.3-27.5,8.2-42.5,8.2l0,0l0,0V272c75.1,0,136-60.9,136-136l0,0C272,60.9,211.1,0,136,0"/>
	<circle fill="#FFFFFF" cx="184.8" cy="20" r="3.5"/>
	<circle fill="#FFFFFF" cx="225.3" cy="47.4" r="3.5"/>
	<circle fill="#FFFFFF" cx="252.6" cy="89.3" r="3.5"/>
	<circle fill="#FFFFFF" cx="261.5" cy="136.4" r="3.5"/>
	<path fill="#FFFFFF" d="M253,181c1.8,0.8,2.6,2.8,1.9,4.6c-0.7,1.8-2.8,2.6-4.6,1.9c-1.8-0.7-2.6-2.8-1.9-4.6
		C249.2,181.1,251.2,180.3,253,181z"/>
	<path fill="#FFFFFF" d="M185.8,250.8c0.7,1.8-0.2,3.8-2,4.5c-1.8,0.7-3.8-0.2-4.5-2c-0.7-1.8,0.2-3.8,1.9-4.5
		C183,248.2,185.1,249,185.8,250.8z"/>
	<path fill="#A3732C" d="M50.5,44.2l-5.7,4l7.3,9.5c1.6-1.7,3.3-3.4,5-5L50.5,44.2"/>
	<path fill="#A3732C" d="M92.4,17.3l-5.7,4l6.5,8.4c2.3-0.9,4.6-1.7,6.9-2.5L92.4,17.3"/>
	<path fill="#A3732C" d="M139,8.2l-3,2.1l-2.7,1.9l2.7,3.5l4.6,6c3.2,0.1,6.3,0.4,9.4,0.8L139,8.2"/>
	<path fill="#A3732C" d="M23.4,85.2l-5.7,4l8.9,11.5c0.8-2.6,1.8-5.2,2.8-7.7L23.4,85.2"/>
	<path fill="#A3732C" d="M13.5,133l-5.7,4L23,156.7c-0.8-4.4-1.4-8.9-1.6-13.5L13.5,133"/>
	<polygon fill="#A3732C" points="41.1,204.3 35.5,208.3 17,184.5 22.7,180.5 	"/>
	<polygon fill="#A3732C" points="67.9,245.5 62.3,249.5 43.9,225.7 49.5,221.7 	"/>
	<g>
		<defs>
			<path id="SVGID_1_" d="M21.7,136C21.7,72.9,72.9,21.7,136,21.7c63.1,0,114.3,51.2,114.3,114.3c0,63.1-51.2,114.3-114.3,114.3
				C72.9,250.3,21.7,199.1,21.7,136"/>
		</defs>
		<clipPath id="SVGID_2_">
			<use xlink:href="#SVGID_1_"  overflow="visible"/>
		</clipPath>
		<polyline clip-path="url(#SVGID_2_)" fill="#48AC33" points="91.3,24.2 136,136 136,11.2 91.3,24.2 		"/>
		<polyline clip-path="url(#SVGID_2_)" fill="#258D37" points="180.7,24.2 136,136 136,11.2 180.7,24.2 		"/>
		<path clip-path="url(#SVGID_2_)" fill="#0989B0" d="M136,22.6c-14.6,1.1-28.4,5-40.9,11.1l33.5,83.9c2.3-1.2,4.8-2.1,7.4-2.6V80.7
			h-1.9l1.9-3.2V22.6 M136,21.7L136,21.7c-5.2,0-10.2,0.3-15.2,1c4.8-0.6,9.7-0.9,14.6-0.9C135.6,21.7,135.8,21.7,136,21.7L136,21.7
			L136,21.7"/>
		<path clip-path="url(#SVGID_2_)" fill="#26346C" d="M137.2,80.7H136V115c0.4-0.1,0.8-0.1,1.2-0.2V80.7 M136,21.7L136,21.7
			c3.5,0.1,6.9,0.3,10.4,0.6c-0.5,0-1,0-1.5,0c-3,0-6,0.1-8.9,0.3v54.9l7.3-12.7l9.2,15.9h-3.2V105l31.8-74.1
			c-9.7-4.2-20.1-7-31-8.4c-3.1-0.4-6.2-0.6-9.4-0.8C139.1,21.7,137.6,21.7,136,21.7"/>
		<polyline clip-path="url(#SVGID_2_)" fill="#48AC33" points="180.7,247.8 136,136 136,260.8 180.7,247.8 		"/>
		<polyline clip-path="url(#SVGID_2_)" fill="#258D37" points="91.3,247.8 136,136 136,260.8 91.3,247.8 		"/>
		<path clip-path="url(#SVGID_2_)" fill="#EEBA37" d="M147.5,164.9c-2.2,0.6-4.5,0.9-6.8,0.9c-1.6,0-3.2-0.1-4.7-0.4v84.1
			c2.9,0.2,5.9,0.3,8.9,0.3c0.5,0,1,0,1.5,0l0,0l0,0c-3.4,0.3-6.9,0.5-10.4,0.5v0c15,0,29.3-2.9,42.5-8.2L147.5,164.9"/>
		<path clip-path="url(#SVGID_2_)" fill="#EF8729" d="M136,250.3c-0.1,0-0.2,0-0.3,0C135.8,250.3,135.9,250.3,136,250.3L136,250.3
			L136,250.3L136,250.3 M125.4,160.7l-32.8,76.4c13.2,6.8,27.8,11.1,43.3,12.3v-84.1C132.1,164.6,128.5,163,125.4,160.7"/>
		<path clip-path="url(#SVGID_2_)" fill="#0989B0" d="M118.7,153.3l-58.6,58.6c9.2,10.3,20.2,18.9,32.6,25.2l32.8-76.4
			C122.7,158.7,120.4,156.2,118.7,153.3"/>
		<path clip-path="url(#SVGID_2_)" fill="#26346C" d="M115.4,144.2l-77.4,31c5,13.7,12.6,26.1,22.1,36.7l58.6-58.6
			C117.1,150.6,115.9,147.5,115.4,144.2"/>
		<path clip-path="url(#SVGID_2_)" fill="#EEBA37" d="M181.1,30.9L149.3,105v11c1.6,0.6,3.1,1.3,4.6,2.1l63-63
			C206.6,44.9,194.5,36.7,181.1,30.9"/>
		<path clip-path="url(#SVGID_2_)" fill="#EF8729" d="M216.9,55.2l-63,63c3.2,1.9,5.9,4.5,8,7.5l80.3-32.1
			C236.4,79,227.7,66,216.9,55.2"/>
		<path clip-path="url(#SVGID_2_)" fill="#E42A25" d="M242.2,93.5l-80.3,32.1c2.1,3,3.5,6.6,4.2,10.3h84.3c0,0,0,0,0,0
			C250.3,121,247.4,106.7,242.2,93.5"/>
		<path clip-path="url(#SVGID_2_)" fill="#91181C" d="M250.3,136H166c0.2,1.4,0.3,2.7,0.3,4.2c0,2.9-0.5,5.7-1.4,8.3l76.1,32.6
			C247.1,167.2,250.3,152,250.3,136"/>
		<path clip-path="url(#SVGID_2_)" fill="#E42A25" d="M115.4,136H31.1c0,0,0,0,0,0c0,13.8,2.4,26.9,6.9,39.2l77.4-31
			c-0.2-1.3-0.3-2.7-0.3-4.1C115.1,138.7,115.2,137.4,115.4,136"/>
		<path clip-path="url(#SVGID_2_)" fill="#91181C" d="M39,94.4c-5.1,12.9-7.8,26.9-7.9,41.6h84.3c0.4-2.7,1.3-5.3,2.6-7.7L39,94.4"
			/>
		<path clip-path="url(#SVGID_2_)" fill="#696467" d="M60.1,60.1c-9,10-16.2,21.6-21.2,34.3l79,33.9c1.1-2.2,2.6-4.2,4.3-6
			L60.1,60.1"/>
		<path clip-path="url(#SVGID_2_)" fill="#1E1A1C" d="M95.1,33.7c-13.3,6.5-25.2,15.5-35,26.4l62.2,62.2c1.8-1.9,4-3.5,6.3-4.8
			L95.1,33.7"/>
		<path clip-path="url(#SVGID_2_)" fill="#E9609B" d="M165,148.4c-1.3,3.9-3.5,7.3-6.4,10.1l58.3,58.3
			c10.2-10.2,18.5-22.3,24.3-35.8L165,148.4"/>
		<path clip-path="url(#SVGID_2_)" fill="#CF1A79" d="M158.6,158.6c-3,2.9-6.8,5.1-11,6.3l30.9,77.3c14.5-5.8,27.5-14.5,38.4-25.3
			L158.6,158.6"/>
	</g>
	<circle fill="#FFFFFF" cx="224.5" cy="223.8" r="3.5"/>
	<circle fill="#FFFFFF" cx="47.5" cy="45.9" r="3.5"/>
	<path fill="#FFFFFF" d="M18.1,178.7c1.8-0.7,3.8,0.2,4.5,2c0.7,1.8-0.2,3.8-2,4.5c-1.8,0.7-3.8-0.2-4.5-2
		C15.4,181.5,16.3,179.4,18.1,178.7z"/>
	<circle fill="#FFFFFF" cx="10.5" cy="134.8" r="3.5"/>
	<circle fill="#FFFFFF" cx="20.3" cy="87" r="3.5"/>
	<path fill="#FFFFFF" d="M44.3,221.3c1.4-1.4,3.6-1.3,4.9,0c1.4,1.4,1.3,3.6,0,4.9c-1.4,1.4-3.6,1.3-4.9,0
		C42.9,224.9,42.9,222.7,44.3,221.3z"/>
	<path fill="#A3732C" d="M89.9,249.1l-5.7,4l9.4,12.2c3.7,1.2,7.4,2.3,11.2,3.1L89.9,249.1z"/>
	<circle fill="#FFFFFF" cx="87.2" cy="251.2" r="3.5"/>
	<path fill="#A3732C" d="M140,271.8c2.8-0.1,5.6-0.3,8.4-0.5l-9.7-12.5l-5.7,4L140,271.8z"/>
	<circle fill="#FFFFFF" cx="136" cy="261.1" r="3.5"/>
	<circle fill="#FFFFFF" cx="89.5" cy="19.1" r="3.5"/>
	<polyline fill="#815A29" points="142.5,120.7 142.5,120.7 136,136 136,136 136,136 142.5,120.7 	"/>
	<path fill="#1C6F89" d="M136,115c-2.6,0.5-5.1,1.4-7.4,2.6L136,136V115"/>
	<path fill="#26305A" d="M137.2,114.8c-0.4,0.1-0.8,0.1-1.2,0.2v21l0,0l6.5-15.3h-5.4V114.8"/>
	<path fill="#B98F34" d="M136,136v29.3c1.5,0.3,3.1,0.4,4.7,0.4c2.4,0,4.7-0.3,6.8-0.9L136,136"/>
	<path fill="#BD6B2A" d="M136,136L136,136l-10.6,24.7c3.1,2.3,6.7,3.9,10.6,4.6L136,136L136,136L136,136"/>
	<path fill="#1C6F89" d="M136,136L136,136l-17.3,17.3c1.7,2.9,4,5.4,6.7,7.4L136,136 M136,136L136,136L136,136L136,136L136,136"/>
	<path fill="#26305A" d="M136,136l-20.6,8.2c0.5,3.3,1.7,6.3,3.3,9.1L136,136 M136,136L136,136L136,136L136,136L136,136"/>
	<path fill="#B98F34" d="M149.3,116v4.7h-6.7L136,136l0,0l0,0l17.9-17.9C152.4,117.3,150.9,116.6,149.3,116"/>
	<path fill="#BD6B2A" d="M153.9,118.2L136,136l0,0l25.8-10.3C159.8,122.6,157,120.1,153.9,118.2"/>
	<path fill="#B72B25" d="M161.9,125.7L136,136l0,0h30C165.4,132.2,163.9,128.7,161.9,125.7"/>
	<path fill="#751B1B" d="M136,136L136,136L136,136L136,136 M166,136h-30l29,12.4c0.9-2.6,1.4-5.4,1.4-8.3
		C166.3,138.7,166.2,137.4,166,136"/>
	<path fill="#B72B25" d="M136,136h-20.6c-0.2,1.4-0.3,2.7-0.3,4.2c0,1.4,0.1,2.8,0.3,4.1L136,136L136,136L136,136"/>
	<path fill="#751B1B" d="M118,128.3c-1.2,2.4-2.1,5-2.6,7.7H136l0,0L118,128.3"/>
	<path fill="#545051" d="M122.3,122.3c-1.7,1.8-3.2,3.8-4.3,6l18,7.7l0,0L122.3,122.3"/>
	<path fill="#181515" d="M128.6,117.6c-2.3,1.3-4.5,2.9-6.3,4.8L136,136l0,0l0,0L128.6,117.6"/>
	<path fill="#B94D7C" d="M136,136L136,136l22.6,22.6c2.9-2.8,5.1-6.3,6.4-10.1L136,136L136,136L136,136L136,136"/>
	<path fill="#A62064" d="M136,136L136,136L136,136L136,136L136,136l11.5,28.9c4.2-1.2,8-3.4,11-6.3L136,136"/>
	<circle fill="#FFFFFF" cx="136" cy="10.1" r="3.5"/>
	<path fill="#927242" d="M23,156.7c9.7,53.3,56.4,93.7,112.4,93.7c0.1,0,0.2,0,0.3,0c-15.9,0-31-3.3-44.7-9.2
		c-13.5-5.8-25.6-14.1-35.8-24.3l4.9-4.9l0,0l-4.9,4.9C44.3,206,35.6,193,29.8,178.5c-2.7-6.7-4.7-13.7-6.1-20.9L23,156.7
		 M26.6,100.8c-3.6,11.1-5.5,22.9-5.5,35.2c0,2.4,0.1,4.8,0.2,7.1l0.6,0.8c-0.2-2.6-0.3-5.3-0.3-7.9l9.4,0l0,0h-9.4c0,0,0,0,0,0
		c0-12.1,1.9-23.8,5.4-34.7L26.6,100.8 M52.1,57.7c-9.6,10.2-17.3,22.1-22.7,35.3l0.4,0.5c0.3-0.9,0.7-1.7,1.1-2.6l8.1,3.5l0,0
		L30.9,91C36.1,78.7,43.4,67.6,52.4,58L52.1,57.7 M93.3,29.8c-13.5,5.4-25.8,13.2-36.2,23l0.2,0.3c10.4-9.8,22.6-17.8,36.1-23.2
		L93.3,29.8 M120.8,22.7c-7.1,0.9-14,2.5-20.6,4.6l0.1,0.1C106.8,25.2,113.7,23.6,120.8,22.7"/>
	<path fill="#815A29" d="M57.1,52.8c-1.7,1.6-3.4,3.3-5,5l0.2,0.3c0.9-1,1.8-1.9,2.8-2.9l5,5l0,0l-5-5c0.7-0.7,1.4-1.4,2.2-2.1
		L57.1,52.8"/>
	<path fill="#815A29" d="M100.2,27.3c-2.3,0.8-4.6,1.6-6.9,2.5l0.1,0.1c0.1,0,0.1,0,0.2-0.1C95.7,28.9,98,28.1,100.2,27.3
		L100.2,27.3"/>
	<path fill="#815A29" d="M29.5,93.1c-1,2.5-2,5.1-2.8,7.7l0.4,0.5c0.8-2.6,1.8-5.2,2.8-7.8L29.5,93.1"/>
	<path fill="#815A29" d="M21.3,143.2c0.3,4.6,0.8,9.1,1.6,13.5l0.7,1c-0.9-4.5-1.4-9-1.8-13.7L21.3,143.2"/>
	<path fill="#1C6F89" d="M135.4,21.7c-5,0-9.8,0.3-14.6,0.9c-7.1,0.9-13.9,2.5-20.5,4.7c-2.3,0.7-4.5,1.6-6.7,2.4l1.6,3.9
		c12.5-6.1,26.3-10,40.9-11.1v-0.8C135.8,21.7,135.6,21.7,135.4,21.7"/>
	<path fill="#26305A" d="M136,21.7v0.8c2.9-0.2,5.9-0.3,8.9-0.3c0.5,0,1,0,1.5,0C142.9,21.9,139.5,21.8,136,21.7"/>
	<path fill="#B98F34" d="M136,249.5v0.8c3.5,0,6.9-0.2,10.4-0.5c-0.5,0-1,0-1.5,0C141.9,249.8,138.9,249.7,136,249.5"/>
	<path fill="#BD6B2A" d="M92.7,237.2l-1.7,4c13.7,5.9,28.9,9.2,44.7,9.2c0.1,0,0.2,0,0.3,0v-0.8C120.5,248.3,105.8,244,92.7,237.2"
		/>
	<path fill="#1C6F89" d="M60.1,211.9l-4.9,4.9c10.2,10.2,22.3,18.5,35.8,24.3l1.7-4C80.3,230.8,69.3,222.2,60.1,211.9"/>
	<path fill="#26305A" d="M38,175.2l-8.2,3.3c5.8,14.5,14.5,27.5,25.3,38.4l4.9-4.9C50.6,201.3,43,188.9,38,175.2"/>
	<path fill="#B72B25" d="M31.1,136h-9.4c0,2.7,0.1,5.3,0.3,7.9c0.3,4.6,0.9,9.2,1.8,13.7c1.4,7.2,3.4,14.2,6.1,20.9l8.2-3.3
		C33.5,163,31.1,149.8,31.1,136C31.1,136,31.1,136,31.1,136"/>
	<path fill="#751B1B" d="M30.9,91c-0.4,0.8-0.7,1.7-1.1,2.6c-1,2.5-2,5.1-2.8,7.8c-3.5,10.9-5.4,22.6-5.4,34.7l0,0l9.4,0
		c0-14.7,2.8-28.7,7.9-41.6L30.9,91"/>
	<path fill="#545051" d="M55.2,55.2c-0.9,0.9-1.9,1.9-2.8,2.9C43.4,67.6,36.1,78.7,30.9,91l8.1,3.5c5-12.7,12.2-24.3,21.2-34.3
		L55.2,55.2"/>
	<path fill="#181515" d="M93.5,29.8c-0.1,0-0.1,0-0.2,0.1c-13.5,5.4-25.7,13.3-36.1,23.2c-0.7,0.7-1.4,1.4-2.2,2.1l5,5
		c9.8-10.9,21.6-19.9,35-26.4L93.5,29.8"/>
	<polyline fill="#815A29" points="149.3,105 145,114.9 145,114.9 149.3,105 149.3,105 	"/>
	<polyline fill="#1C6F89" points="136,77.5 134.1,80.7 136,80.7 136,77.5 	"/>
	<path fill="#26305A" d="M143.3,64.8L136,77.5v3.2h1.2v34.1c1.2-0.2,2.3-0.2,3.5-0.2c1.5,0,2.9,0.1,4.3,0.4l4.2-9.9V80.7h3.2
		L143.3,64.8"/>
	<path fill="#B98F34" d="M149.3,105l-4.2,9.9c1.5,0.2,2.9,0.6,4.2,1.1V105"/>
	<polyline fill="#684A26" points="145,114.9 142.5,120.7 142.5,120.7 145,114.9 145,114.9 	"/>
	<path fill="#252C4C" d="M140.7,114.5c-1.2,0-2.4,0.1-3.5,0.2v6h5.4l2.5-5.8C143.6,114.7,142.2,114.5,140.7,114.5"/>
	<path fill="#917030" d="M145,114.9l-2.5,5.8h6.7V116C147.9,115.5,146.5,115.1,145,114.9"/>
	<circle fill="#FFFFFF" cx="56.9" cy="83.5" r="9.7"/>
	<circle fill="#FFFFFF" cx="84.2" cy="58.2" r="9.7"/>
	<circle fill="#FFFFFF" cx="118.4" cy="43.9" r="9.7"/>
	<circle fill="#FFFFFF" cx="154.9" cy="43.9" r="9.7"/>
	<circle fill="#FFFFFF" cx="188.3" cy="58.2" r="9.7"/>
	<circle fill="#FFFFFF" cx="215.5" cy="83.5" r="9.7"/>
	<circle fill="#FFFFFF" cx="215.5" cy="189.7" r="9.7"/>
	<circle fill="#FFFFFF" cx="230.7" cy="155.6" r="9.7"/>
	<circle fill="#FFFFFF" cx="230.7" cy="117.9" r="9.7"/>
	<circle fill="#FFFFFF" cx="43" cy="153.7" r="9.7"/>
	<circle fill="#FFFFFF" cx="43" cy="117.9" r="9.7"/>
	<circle fill="#FFFFFF" cx="188.2" cy="215" r="9.7"/>
	<circle fill="#FFFFFF" cx="154" cy="229.2" r="9.7"/>
	<circle fill="#FFFFFF" cx="117.5" cy="229.2" r="9.7"/>
	<circle fill="#FFFFFF" cx="84.1" cy="215" r="9.7"/>
	<circle fill="#FFFFFF" cx="56.9" cy="189.7" r="9.7"/>
	<polygon fill="#E73635" points="145.2,74.9 136,59 126.8,74.9 129.9,74.9 129.9,115 142,115 142,74.9 	"/>
	<polygon fill="#DD1616" points="136,59 136,115 142,115 142,74.9 145.2,74.9 136,59 	"/>
	<circle fill="#FFFFFF" cx="136" cy="136" r="25.6"/>
	<polygon fill="#EEBA37" points="136.1,120.6 139.7,131.7 151.4,131.7 142,138.5 145.6,149.7 136.1,142.8 126.7,149.7 130.3,138.5 
		120.8,131.7 132.5,131.7 	"/>
</g>
</svg>
